<svg width="672" height="210" viewBox="0 0 672 210" fill="none" xmlns="http://www.w3.org/2000/svg">
    <path d="M57.5189 176.667H659.891" stroke="#CCCCCC" stroke-dasharray="4 2"/>
    <path d="M57.5189 144.553H659.891" stroke="#CCCCCC" stroke-dasharray="4 2"/>
    <path d="M57.5189 112.439H659.891" stroke="#CCCCCC" stroke-dasharray="4 2"/>
    <path d="M57.5189 80.3252H659.891" stroke="#CCCCCC" stroke-dasharray="4 2"/>
    <path d="M57.5189 48.2112H659.891" stroke="#CCCCCC" stroke-dasharray="4 2"/>
    <path d="M58.4456 47.3983V177.48" stroke="#CCCCCC" stroke-dasharray="4 2"/>
    <path d="M178.549 47.3983V177.48" stroke="#CCCCCC" stroke-dasharray="4 2"/>
    <path d="M298.653 47.3983V177.48" stroke="#CCCCCC" stroke-dasharray="4 2"/>
    <path d="M418.757 47.3983V177.48" stroke="#CCCCCC" stroke-dasharray="4 2"/>
    <path d="M538.86 47.3983V177.48" stroke="#CCCCCC" stroke-dasharray="4 2"/>
    <path d="M658.964 47.3983V177.48" stroke="#CCCCCC" stroke-dasharray="4 2"/>
    <path d="M21.7982 176.34L21.0755 176.154L21.432 172.614H25.0794V173.449H22.1986L21.9837 175.383C22.1139 175.308 22.2783 175.238 22.4769 175.173C22.6787 175.108 22.9098 175.075 23.1702 175.075C23.499 175.075 23.7936 175.132 24.054 175.246C24.3144 175.357 24.5358 175.516 24.7181 175.724C24.9036 175.933 25.0452 176.183 25.1429 176.476C25.2405 176.769 25.2894 177.096 25.2894 177.458C25.2894 177.8 25.2422 178.114 25.1478 178.4C25.0566 178.687 24.9183 178.937 24.7327 179.152C24.5472 179.364 24.3128 179.528 24.0296 179.645C23.7497 179.762 23.4193 179.821 23.0384 179.821C22.7519 179.821 22.4801 179.782 22.223 179.704C21.9691 179.622 21.7412 179.5 21.5394 179.338C21.3408 179.172 21.178 178.967 21.0511 178.722C20.9274 178.475 20.8493 178.185 20.8167 177.853H21.6761C21.7152 178.12 21.7933 178.345 21.9105 178.527C22.0277 178.709 22.1807 178.848 22.3695 178.942C22.5615 179.033 22.7845 179.079 23.0384 179.079C23.2532 179.079 23.4437 179.041 23.6097 178.967C23.7757 178.892 23.9157 178.784 24.0296 178.644C24.1435 178.504 24.2298 178.335 24.2884 178.136C24.3502 177.938 24.3812 177.715 24.3812 177.468C24.3812 177.243 24.3502 177.035 24.2884 176.843C24.2265 176.65 24.1338 176.483 24.0101 176.34C23.8896 176.196 23.7415 176.086 23.5657 176.008C23.39 175.926 23.1881 175.885 22.9603 175.885C22.6575 175.885 22.428 175.926 22.2718 176.008C22.1188 176.089 21.9609 176.2 21.7982 176.34ZM30.7435 175.602V176.686C30.7435 177.269 30.6914 177.76 30.5872 178.161C30.4831 178.561 30.3333 178.884 30.138 179.128C29.9427 179.372 29.7067 179.549 29.43 179.66C29.1566 179.767 28.8473 179.821 28.5023 179.821C28.2288 179.821 27.9765 179.787 27.7454 179.719C27.5143 179.65 27.306 179.541 27.1204 179.391C26.9381 179.238 26.7819 179.04 26.6517 178.796C26.5215 178.552 26.4222 178.255 26.3538 177.907C26.2855 177.559 26.2513 177.152 26.2513 176.686V175.602C26.2513 175.02 26.3034 174.531 26.4075 174.137C26.515 173.744 26.6663 173.428 26.8616 173.19C27.057 172.949 27.2913 172.777 27.5648 172.673C27.8415 172.568 28.1507 172.516 28.4925 172.516C28.7692 172.516 29.0231 172.551 29.2542 172.619C29.4886 172.684 29.6969 172.79 29.8792 172.936C30.0615 173.08 30.2161 173.272 30.3431 173.512C30.4733 173.75 30.5726 174.041 30.6409 174.386C30.7093 174.732 30.7435 175.137 30.7435 175.602ZM29.8353 176.833V175.451C29.8353 175.132 29.8157 174.852 29.7767 174.611C29.7409 174.367 29.6872 174.159 29.6155 173.986C29.5439 173.814 29.4528 173.674 29.3421 173.566C29.2347 173.459 29.1094 173.381 28.9661 173.332C28.8262 173.28 28.6683 173.254 28.4925 173.254C28.2777 173.254 28.0872 173.294 27.9212 173.376C27.7552 173.454 27.6152 173.579 27.5013 173.752C27.3906 173.924 27.306 174.15 27.2474 174.43C27.1888 174.71 27.1595 175.051 27.1595 175.451V176.833C27.1595 177.152 27.1774 177.433 27.2132 177.677C27.2523 177.922 27.3092 178.133 27.3841 178.312C27.459 178.488 27.5501 178.633 27.6575 178.747C27.765 178.861 27.8887 178.945 28.0286 179.001C28.1719 179.053 28.3297 179.079 28.5023 179.079C28.7236 179.079 28.9173 179.037 29.0833 178.952C29.2493 178.867 29.3877 178.735 29.4984 178.556C29.6123 178.374 29.6969 178.141 29.7523 177.858C29.8076 177.572 29.8353 177.23 29.8353 176.833ZM36.3685 175.602V176.686C36.3685 177.269 36.3164 177.76 36.2122 178.161C36.1081 178.561 35.9583 178.884 35.763 179.128C35.5677 179.372 35.3317 179.549 35.055 179.66C34.7816 179.767 34.4723 179.821 34.1273 179.821C33.8538 179.821 33.6015 179.787 33.3704 179.719C33.1393 179.65 32.931 179.541 32.7454 179.391C32.5631 179.238 32.4069 179.04 32.2767 178.796C32.1465 178.552 32.0472 178.255 31.9788 177.907C31.9105 177.559 31.8763 177.152 31.8763 176.686V175.602C31.8763 175.02 31.9284 174.531 32.0325 174.137C32.14 173.744 32.2913 173.428 32.4866 173.19C32.682 172.949 32.9163 172.777 33.1898 172.673C33.4665 172.568 33.7757 172.516 34.1175 172.516C34.3942 172.516 34.6481 172.551 34.8792 172.619C35.1136 172.684 35.3219 172.79 35.5042 172.936C35.6865 173.08 35.8411 173.272 35.9681 173.512C36.0983 173.75 36.1976 174.041 36.2659 174.386C36.3343 174.732 36.3685 175.137 36.3685 175.602ZM35.4603 176.833V175.451C35.4603 175.132 35.4407 174.852 35.4017 174.611C35.3659 174.367 35.3122 174.159 35.2405 173.986C35.1689 173.814 35.0778 173.674 34.9671 173.566C34.8597 173.459 34.7344 173.381 34.5911 173.332C34.4512 173.28 34.2933 173.254 34.1175 173.254C33.9027 173.254 33.7122 173.294 33.5462 173.376C33.3802 173.454 33.2402 173.579 33.1263 173.752C33.0156 173.924 32.931 174.15 32.8724 174.43C32.8138 174.71 32.7845 175.051 32.7845 175.451V176.833C32.7845 177.152 32.8024 177.433 32.8382 177.677C32.8773 177.922 32.9342 178.133 33.0091 178.312C33.084 178.488 33.1751 178.633 33.2825 178.747C33.39 178.861 33.5137 178.945 33.6536 179.001C33.7969 179.053 33.9547 179.079 34.1273 179.079C34.3486 179.079 34.5423 179.037 34.7083 178.952C34.8743 178.867 35.0127 178.735 35.1234 178.556C35.2373 178.374 35.3219 178.141 35.3773 177.858C35.4326 177.572 35.4603 177.23 35.4603 176.833ZM41.9935 175.602V176.686C41.9935 177.269 41.9414 177.76 41.8372 178.161C41.7331 178.561 41.5833 178.884 41.388 179.128C41.1927 179.372 40.9567 179.549 40.68 179.66C40.4066 179.767 40.0973 179.821 39.7523 179.821C39.4788 179.821 39.2265 179.787 38.9954 179.719C38.7643 179.65 38.556 179.541 38.3704 179.391C38.1881 179.238 38.0319 179.04 37.9017 178.796C37.7715 178.552 37.6722 178.255 37.6038 177.907C37.5355 177.559 37.5013 177.152 37.5013 176.686V175.602C37.5013 175.02 37.5534 174.531 37.6575 174.137C37.765 173.744 37.9163 173.428 38.1116 173.19C38.307 172.949 38.5413 172.777 38.8148 172.673C39.0915 172.568 39.4007 172.516 39.7425 172.516C40.0192 172.516 40.2731 172.551 40.5042 172.619C40.7386 172.684 40.9469 172.79 41.1292 172.936C41.3115 173.08 41.4661 173.272 41.5931 173.512C41.7233 173.75 41.8226 174.041 41.8909 174.386C41.9593 174.732 41.9935 175.137 41.9935 175.602ZM41.0853 176.833V175.451C41.0853 175.132 41.0657 174.852 41.0267 174.611C40.9909 174.367 40.9372 174.159 40.8655 173.986C40.7939 173.814 40.7028 173.674 40.5921 173.566C40.4847 173.459 40.3594 173.381 40.2161 173.332C40.0762 173.28 39.9183 173.254 39.7425 173.254C39.5277 173.254 39.3372 173.294 39.1712 173.376C39.0052 173.454 38.8652 173.579 38.7513 173.752C38.6406 173.924 38.556 174.15 38.4974 174.43C38.4388 174.71 38.4095 175.051 38.4095 175.451V176.833C38.4095 177.152 38.4274 177.433 38.4632 177.677C38.5023 177.922 38.5592 178.133 38.6341 178.312C38.709 178.488 38.8001 178.633 38.9075 178.747C39.015 178.861 39.1387 178.945 39.2786 179.001C39.4219 179.053 39.5797 179.079 39.7523 179.079C39.9736 179.079 40.1673 179.037 40.3333 178.952C40.4993 178.867 40.6377 178.735 40.7484 178.556C40.8623 178.374 40.9469 178.141 41.0023 177.858C41.0576 177.572 41.0853 177.23 41.0853 176.833ZM47.6185 175.602V176.686C47.6185 177.269 47.5664 177.76 47.4622 178.161C47.3581 178.561 47.2083 178.884 47.013 179.128C46.8177 179.372 46.5817 179.549 46.305 179.66C46.0316 179.767 45.7223 179.821 45.3773 179.821C45.1038 179.821 44.8515 179.787 44.6204 179.719C44.3893 179.65 44.181 179.541 43.9954 179.391C43.8131 179.238 43.6569 179.04 43.5267 178.796C43.3965 178.552 43.2972 178.255 43.2288 177.907C43.1605 177.559 43.1263 177.152 43.1263 176.686V175.602C43.1263 175.02 43.1784 174.531 43.2825 174.137C43.39 173.744 43.5413 173.428 43.7366 173.19C43.932 172.949 44.1663 172.777 44.4398 172.673C44.7165 172.568 45.0257 172.516 45.3675 172.516C45.6442 172.516 45.8981 172.551 46.1292 172.619C46.3636 172.684 46.5719 172.79 46.7542 172.936C46.9365 173.08 47.0911 173.272 47.2181 173.512C47.3483 173.75 47.4476 174.041 47.5159 174.386C47.5843 174.732 47.6185 175.137 47.6185 175.602ZM46.7103 176.833V175.451C46.7103 175.132 46.6907 174.852 46.6517 174.611C46.6159 174.367 46.5622 174.159 46.4905 173.986C46.4189 173.814 46.3278 173.674 46.2171 173.566C46.1097 173.459 45.9844 173.381 45.8411 173.332C45.7012 173.28 45.5433 173.254 45.3675 173.254C45.1527 173.254 44.9622 173.294 44.7962 173.376C44.6302 173.454 44.4902 173.579 44.3763 173.752C44.2656 173.924 44.181 174.15 44.1224 174.43C44.0638 174.71 44.0345 175.051 44.0345 175.451V176.833C44.0345 177.152 44.0524 177.433 44.0882 177.677C44.1273 177.922 44.1842 178.133 44.2591 178.312C44.334 178.488 44.4251 178.633 44.5325 178.747C44.64 178.861 44.7637 178.945 44.9036 179.001C45.0469 179.053 45.2047 179.079 45.3773 179.079C45.5986 179.079 45.7923 179.037 45.9583 178.952C46.1243 178.867 46.2627 178.735 46.3734 178.556C46.4873 178.374 46.5719 178.141 46.6273 177.858C46.6826 177.572 46.7103 177.23 46.7103 176.833Z" fill="#333333"/>
    <path d="M21.7982 144.226L21.0755 144.04L21.432 140.5H25.0794V141.335H22.1986L21.9837 143.269C22.1139 143.194 22.2783 143.124 22.4769 143.059C22.6787 142.993 22.9098 142.961 23.1702 142.961C23.499 142.961 23.7936 143.018 24.054 143.132C24.3144 143.243 24.5358 143.402 24.7181 143.61C24.9036 143.819 25.0452 144.069 25.1429 144.362C25.2405 144.655 25.2894 144.982 25.2894 145.344C25.2894 145.686 25.2422 146 25.1478 146.286C25.0566 146.573 24.9183 146.823 24.7327 147.038C24.5472 147.25 24.3128 147.414 24.0296 147.531C23.7497 147.648 23.4193 147.707 23.0384 147.707C22.7519 147.707 22.4801 147.668 22.223 147.59C21.9691 147.508 21.7412 147.386 21.5394 147.224C21.3408 147.058 21.178 146.853 21.0511 146.608C20.9274 146.361 20.8493 146.071 20.8167 145.739H21.6761C21.7152 146.006 21.7933 146.231 21.9105 146.413C22.0277 146.595 22.1807 146.734 22.3695 146.828C22.5615 146.919 22.7845 146.965 23.0384 146.965C23.2532 146.965 23.4437 146.927 23.6097 146.853C23.7757 146.778 23.9157 146.67 24.0296 146.53C24.1435 146.39 24.2298 146.221 24.2884 146.022C24.3502 145.824 24.3812 145.601 24.3812 145.354C24.3812 145.129 24.3502 144.921 24.2884 144.729C24.2265 144.536 24.1338 144.369 24.0101 144.226C23.8896 144.082 23.7415 143.972 23.5657 143.894C23.39 143.812 23.1881 143.771 22.9603 143.771C22.6575 143.771 22.428 143.812 22.2718 143.894C22.1188 143.975 21.9609 144.086 21.7982 144.226ZM27.5989 143.61H28.2435C28.5592 143.61 28.8196 143.558 29.0247 143.454C29.2331 143.347 29.3877 143.202 29.4886 143.02C29.5928 142.834 29.6448 142.626 29.6448 142.395C29.6448 142.121 29.5993 141.892 29.5081 141.706C29.417 141.521 29.2803 141.381 29.098 141.286C28.9157 141.192 28.6846 141.145 28.4046 141.145C28.1507 141.145 27.9261 141.195 27.7308 141.296C27.5387 141.394 27.3874 141.534 27.2767 141.716C27.1693 141.898 27.1155 142.113 27.1155 142.36H26.2122C26.2122 141.999 26.3034 141.67 26.4857 141.374C26.668 141.078 26.9235 140.842 27.2523 140.666C27.5843 140.49 27.9684 140.402 28.4046 140.402C28.8343 140.402 29.2103 140.479 29.5325 140.632C29.8548 140.782 30.1055 141.006 30.2845 141.306C30.4635 141.602 30.553 141.971 30.553 142.414C30.553 142.593 30.5107 142.785 30.4261 142.99C30.3447 143.192 30.2161 143.381 30.0404 143.557C29.8678 143.732 29.6432 143.877 29.3665 143.991C29.0898 144.102 28.7578 144.157 28.3704 144.157H27.5989V143.61ZM27.5989 144.353V143.811H28.3704C28.8229 143.811 29.1973 143.864 29.4935 143.972C29.7897 144.079 30.0224 144.222 30.1917 144.401C30.3642 144.58 30.4847 144.777 30.553 144.992C30.6247 145.204 30.6605 145.415 30.6605 145.627C30.6605 145.959 30.6035 146.254 30.4896 146.511C30.3789 146.768 30.221 146.986 30.0159 147.165C29.8141 147.344 29.5765 147.479 29.303 147.57C29.0296 147.661 28.7318 147.707 28.4095 147.707C28.1002 147.707 27.8089 147.663 27.5355 147.575C27.2653 147.487 27.026 147.36 26.8177 147.194C26.6094 147.025 26.4466 146.818 26.3294 146.574C26.2122 146.327 26.1536 146.045 26.1536 145.729H27.057C27.057 145.977 27.1107 146.193 27.2181 146.379C27.3288 146.564 27.485 146.709 27.6868 146.813C27.8919 146.914 28.1328 146.965 28.4095 146.965C28.6862 146.965 28.9238 146.918 29.1224 146.823C29.3242 146.726 29.4788 146.579 29.5863 146.384C29.6969 146.188 29.7523 145.943 29.7523 145.646C29.7523 145.35 29.6904 145.108 29.5667 144.919C29.443 144.727 29.2672 144.585 29.0394 144.494C28.8148 144.4 28.5495 144.353 28.2435 144.353H27.5989ZM36.5003 140.5V141.008L33.556 147.609H32.6038L35.5433 141.242H31.6956V140.5H36.5003ZM38.6732 144.226L37.9505 144.04L38.307 140.5H41.9544V141.335H39.0736L38.8587 143.269C38.9889 143.194 39.1533 143.124 39.3519 143.059C39.5537 142.993 39.7848 142.961 40.0452 142.961C40.374 142.961 40.6686 143.018 40.929 143.132C41.1894 143.243 41.4108 143.402 41.5931 143.61C41.7786 143.819 41.9202 144.069 42.0179 144.362C42.1155 144.655 42.1644 144.982 42.1644 145.344C42.1644 145.686 42.1172 146 42.0228 146.286C41.9316 146.573 41.7933 146.823 41.6077 147.038C41.4222 147.25 41.1878 147.414 40.9046 147.531C40.6247 147.648 40.2943 147.707 39.9134 147.707C39.6269 147.707 39.3551 147.668 39.098 147.59C38.8441 147.508 38.6162 147.386 38.4144 147.224C38.2158 147.058 38.053 146.853 37.9261 146.608C37.8024 146.361 37.7243 146.071 37.6917 145.739H38.5511C38.5902 146.006 38.6683 146.231 38.7855 146.413C38.9027 146.595 39.0557 146.734 39.2445 146.828C39.4365 146.919 39.6595 146.965 39.9134 146.965C40.1282 146.965 40.3187 146.927 40.4847 146.853C40.6507 146.778 40.7907 146.67 40.9046 146.53C41.0185 146.39 41.1048 146.221 41.1634 146.022C41.2252 145.824 41.2562 145.601 41.2562 145.354C41.2562 145.129 41.2252 144.921 41.1634 144.729C41.1015 144.536 41.0088 144.369 40.8851 144.226C40.7646 144.082 40.6165 143.972 40.4407 143.894C40.265 143.812 40.0631 143.771 39.8353 143.771C39.5325 143.771 39.303 143.812 39.1468 143.894C38.9938 143.975 38.8359 144.086 38.6732 144.226ZM47.6185 143.488V144.572C47.6185 145.155 47.5664 145.646 47.4622 146.047C47.3581 146.447 47.2083 146.77 47.013 147.014C46.8177 147.258 46.5817 147.435 46.305 147.546C46.0316 147.653 45.7223 147.707 45.3773 147.707C45.1038 147.707 44.8515 147.673 44.6204 147.604C44.3893 147.536 44.181 147.427 43.9954 147.277C43.8131 147.124 43.6569 146.926 43.5267 146.682C43.3965 146.438 43.2972 146.141 43.2288 145.793C43.1605 145.445 43.1263 145.038 43.1263 144.572V143.488C43.1263 142.906 43.1784 142.417 43.2825 142.023C43.39 141.63 43.5413 141.314 43.7366 141.076C43.932 140.835 44.1663 140.663 44.4398 140.559C44.7165 140.454 45.0257 140.402 45.3675 140.402C45.6442 140.402 45.8981 140.437 46.1292 140.505C46.3636 140.57 46.5719 140.676 46.7542 140.822C46.9365 140.965 47.0911 141.158 47.2181 141.398C47.3483 141.636 47.4476 141.927 47.5159 142.272C47.5843 142.618 47.6185 143.023 47.6185 143.488ZM46.7103 144.719V143.337C46.7103 143.018 46.6907 142.738 46.6517 142.497C46.6159 142.253 46.5622 142.045 46.4905 141.872C46.4189 141.7 46.3278 141.56 46.2171 141.452C46.1097 141.345 45.9844 141.267 45.8411 141.218C45.7012 141.166 45.5433 141.14 45.3675 141.14C45.1527 141.14 44.9622 141.18 44.7962 141.262C44.6302 141.34 44.4902 141.465 44.3763 141.638C44.2656 141.81 44.181 142.036 44.1224 142.316C44.0638 142.596 44.0345 142.937 44.0345 143.337V144.719C44.0345 145.038 44.0524 145.319 44.0882 145.563C44.1273 145.808 44.1842 146.019 44.2591 146.198C44.334 146.374 44.4251 146.519 44.5325 146.633C44.64 146.747 44.7637 146.831 44.9036 146.887C45.0469 146.939 45.2047 146.965 45.3773 146.965C45.5986 146.965 45.7923 146.923 45.9583 146.838C46.1243 146.753 46.2627 146.621 46.3734 146.442C46.4873 146.26 46.5719 146.027 46.6273 145.744C46.6826 145.458 46.7103 145.116 46.7103 144.719Z" fill="#333333"/>
    <path d="M21.7982 112.112L21.0755 111.927L21.432 108.387H25.0794V109.222H22.1986L21.9837 111.155C22.1139 111.08 22.2783 111.01 22.4769 110.945C22.6787 110.88 22.9098 110.848 23.1702 110.848C23.499 110.848 23.7936 110.905 24.054 111.018C24.3144 111.129 24.5358 111.289 24.7181 111.497C24.9036 111.705 25.0452 111.956 25.1429 112.249C25.2405 112.542 25.2894 112.869 25.2894 113.23C25.2894 113.572 25.2422 113.886 25.1478 114.173C25.0566 114.459 24.9183 114.71 24.7327 114.925C24.5472 115.136 24.3128 115.301 24.0296 115.418C23.7497 115.535 23.4193 115.594 23.0384 115.594C22.7519 115.594 22.4801 115.555 22.223 115.476C21.9691 115.395 21.7412 115.273 21.5394 115.11C21.3408 114.944 21.178 114.739 21.0511 114.495C20.9274 114.248 20.8493 113.958 20.8167 113.626H21.6761C21.7152 113.893 21.7933 114.117 21.9105 114.3C22.0277 114.482 22.1807 114.62 22.3695 114.715C22.5615 114.806 22.7845 114.851 23.0384 114.851C23.2532 114.851 23.4437 114.814 23.6097 114.739C23.7757 114.664 23.9157 114.557 24.0296 114.417C24.1435 114.277 24.2298 114.108 24.2884 113.909C24.3502 113.71 24.3812 113.488 24.3812 113.24C24.3812 113.016 24.3502 112.807 24.2884 112.615C24.2265 112.423 24.1338 112.255 24.0101 112.112C23.8896 111.969 23.7415 111.858 23.5657 111.78C23.39 111.699 23.1881 111.658 22.9603 111.658C22.6575 111.658 22.428 111.699 22.2718 111.78C22.1188 111.862 21.9609 111.972 21.7982 112.112ZM30.8753 108.387V108.894L27.931 115.496H26.9788L29.9183 109.129H26.0706V108.387H30.8753ZM33.0482 112.112L32.3255 111.927L32.682 108.387H36.3294V109.222H33.4486L33.2337 111.155C33.3639 111.08 33.5283 111.01 33.7269 110.945C33.9287 110.88 34.1598 110.848 34.4202 110.848C34.749 110.848 35.0436 110.905 35.304 111.018C35.5644 111.129 35.7858 111.289 35.9681 111.497C36.1536 111.705 36.2952 111.956 36.3929 112.249C36.4905 112.542 36.5394 112.869 36.5394 113.23C36.5394 113.572 36.4922 113.886 36.3978 114.173C36.3066 114.459 36.1683 114.71 35.9827 114.925C35.7972 115.136 35.5628 115.301 35.2796 115.418C34.9997 115.535 34.6693 115.594 34.2884 115.594C34.0019 115.594 33.7301 115.555 33.473 115.476C33.2191 115.395 32.9912 115.273 32.7894 115.11C32.5908 114.944 32.428 114.739 32.3011 114.495C32.1774 114.248 32.0993 113.958 32.0667 113.626H32.9261C32.9652 113.893 33.0433 114.117 33.1605 114.3C33.2777 114.482 33.4307 114.62 33.6195 114.715C33.8115 114.806 34.0345 114.851 34.2884 114.851C34.5032 114.851 34.6937 114.814 34.8597 114.739C35.0257 114.664 35.1657 114.557 35.2796 114.417C35.3935 114.277 35.4798 114.108 35.5384 113.909C35.6002 113.71 35.6312 113.488 35.6312 113.24C35.6312 113.016 35.6002 112.807 35.5384 112.615C35.4765 112.423 35.3838 112.255 35.2601 112.112C35.1396 111.969 34.9915 111.858 34.8157 111.78C34.64 111.699 34.4381 111.658 34.2103 111.658C33.9075 111.658 33.678 111.699 33.5218 111.78C33.3688 111.862 33.2109 111.972 33.0482 112.112ZM41.9935 111.375V112.459C41.9935 113.042 41.9414 113.533 41.8372 113.933C41.7331 114.334 41.5833 114.656 41.388 114.9C41.1927 115.144 40.9567 115.322 40.68 115.432C40.4066 115.54 40.0973 115.594 39.7523 115.594C39.4788 115.594 39.2265 115.559 38.9954 115.491C38.7643 115.423 38.556 115.314 38.3704 115.164C38.1881 115.011 38.0319 114.812 37.9017 114.568C37.7715 114.324 37.6722 114.028 37.6038 113.68C37.5355 113.331 37.5013 112.924 37.5013 112.459V111.375C37.5013 110.792 37.5534 110.304 37.6575 109.91C37.765 109.516 37.9163 109.2 38.1116 108.963C38.307 108.722 38.5413 108.549 38.8148 108.445C39.0915 108.341 39.4007 108.289 39.7425 108.289C40.0192 108.289 40.2731 108.323 40.5042 108.391C40.7386 108.457 40.9469 108.562 41.1292 108.709C41.3115 108.852 41.4661 109.044 41.5931 109.285C41.7233 109.523 41.8226 109.814 41.8909 110.159C41.9593 110.504 41.9935 110.909 41.9935 111.375ZM41.0853 112.605V111.224C41.0853 110.905 41.0657 110.625 41.0267 110.384C40.9909 110.14 40.9372 109.931 40.8655 109.759C40.7939 109.586 40.7028 109.446 40.5921 109.339C40.4847 109.231 40.3594 109.153 40.2161 109.104C40.0762 109.052 39.9183 109.026 39.7425 109.026C39.5277 109.026 39.3372 109.067 39.1712 109.148C39.0052 109.226 38.8652 109.352 38.7513 109.524C38.6406 109.697 38.556 109.923 38.4974 110.203C38.4388 110.483 38.4095 110.823 38.4095 111.224V112.605C38.4095 112.924 38.4274 113.206 38.4632 113.45C38.5023 113.694 38.5592 113.906 38.6341 114.085C38.709 114.261 38.8001 114.405 38.9075 114.519C39.015 114.633 39.1387 114.718 39.2786 114.773C39.4219 114.825 39.5797 114.851 39.7523 114.851C39.9736 114.851 40.1673 114.809 40.3333 114.724C40.4993 114.64 40.6377 114.508 40.7484 114.329C40.8623 114.147 40.9469 113.914 41.0023 113.631C41.0576 113.344 41.0853 113.002 41.0853 112.605ZM47.6185 111.375V112.459C47.6185 113.042 47.5664 113.533 47.4622 113.933C47.3581 114.334 47.2083 114.656 47.013 114.9C46.8177 115.144 46.5817 115.322 46.305 115.432C46.0316 115.54 45.7223 115.594 45.3773 115.594C45.1038 115.594 44.8515 115.559 44.6204 115.491C44.3893 115.423 44.181 115.314 43.9954 115.164C43.8131 115.011 43.6569 114.812 43.5267 114.568C43.3965 114.324 43.2972 114.028 43.2288 113.68C43.1605 113.331 43.1263 112.924 43.1263 112.459V111.375C43.1263 110.792 43.1784 110.304 43.2825 109.91C43.39 109.516 43.5413 109.2 43.7366 108.963C43.932 108.722 44.1663 108.549 44.4398 108.445C44.7165 108.341 45.0257 108.289 45.3675 108.289C45.6442 108.289 45.8981 108.323 46.1292 108.391C46.3636 108.457 46.5719 108.562 46.7542 108.709C46.9365 108.852 47.0911 109.044 47.2181 109.285C47.3483 109.523 47.4476 109.814 47.5159 110.159C47.5843 110.504 47.6185 110.909 47.6185 111.375ZM46.7103 112.605V111.224C46.7103 110.905 46.6907 110.625 46.6517 110.384C46.6159 110.14 46.5622 109.931 46.4905 109.759C46.4189 109.586 46.3278 109.446 46.2171 109.339C46.1097 109.231 45.9844 109.153 45.8411 109.104C45.7012 109.052 45.5433 109.026 45.3675 109.026C45.1527 109.026 44.9622 109.067 44.7962 109.148C44.6302 109.226 44.4902 109.352 44.3763 109.524C44.2656 109.697 44.181 109.923 44.1224 110.203C44.0638 110.483 44.0345 110.823 44.0345 111.224V112.605C44.0345 112.924 44.0524 113.206 44.0882 113.45C44.1273 113.694 44.1842 113.906 44.2591 114.085C44.334 114.261 44.4251 114.405 44.5325 114.519C44.64 114.633 44.7637 114.718 44.9036 114.773C45.0469 114.825 45.2047 114.851 45.3773 114.851C45.5986 114.851 45.7923 114.809 45.9583 114.724C46.1243 114.64 46.2627 114.508 46.3734 114.329C46.4873 114.147 46.5719 113.914 46.6273 113.631C46.6826 113.344 46.7103 113.002 46.7103 112.605Z" fill="#333333"/>
    <path d="M24.1224 76.2629H24.2005V77.0295H24.1224C23.6439 77.0295 23.2435 77.1077 22.9212 77.2639C22.5989 77.4169 22.3434 77.6236 22.1546 77.884C21.9658 78.1412 21.8291 78.4309 21.7445 78.7532C21.6631 79.0754 21.6224 79.4026 21.6224 79.7346V80.7795C21.6224 81.0953 21.6598 81.3752 21.7347 81.6194C21.8096 81.8603 21.9121 82.0637 22.0423 82.2297C22.1725 82.3958 22.319 82.5211 22.4818 82.6057C22.6478 82.6903 22.8203 82.7327 22.9993 82.7327C23.2077 82.7327 23.3932 82.6936 23.556 82.6155C23.7187 82.5341 23.8555 82.4218 23.9661 82.2786C24.0801 82.1321 24.1663 81.9596 24.2249 81.761C24.2835 81.5624 24.3128 81.3443 24.3128 81.1067C24.3128 80.8951 24.2868 80.6917 24.2347 80.4963C24.1826 80.2978 24.1029 80.122 23.9954 79.969C23.888 79.8127 23.7529 79.6907 23.5902 79.6028C23.4307 79.5116 23.2402 79.4661 23.0189 79.4661C22.7682 79.4661 22.5338 79.5279 22.3157 79.6516C22.1009 79.7721 21.9235 79.9316 21.7835 80.1301C21.6468 80.3254 21.5687 80.5387 21.5491 80.7698L21.0706 80.7649C21.1162 80.4003 21.2008 80.0894 21.3245 79.8323C21.4515 79.5719 21.6077 79.3603 21.7933 79.1975C21.9821 79.0315 22.192 78.9111 22.4232 78.8362C22.6575 78.7581 22.9049 78.719 23.1654 78.719C23.5202 78.719 23.8262 78.7857 24.0833 78.9192C24.3405 79.0527 24.5521 79.2317 24.7181 79.4563C24.8841 79.6777 25.0062 79.9283 25.0843 80.2083C25.1657 80.4849 25.2064 80.7698 25.2064 81.0627C25.2064 81.398 25.1592 81.7122 25.0648 82.0051C24.9704 82.2981 24.8288 82.5553 24.64 82.7766C24.4544 82.998 24.2249 83.1705 23.9515 83.2942C23.678 83.4179 23.3607 83.4797 22.9993 83.4797C22.6152 83.4797 22.2799 83.4016 21.9935 83.2454C21.707 83.0859 21.4694 82.8743 21.2806 82.6106C21.0918 82.3469 20.9502 82.054 20.8558 81.7317C20.7614 81.4094 20.7142 81.0823 20.7142 80.7502V80.3254C20.7142 79.8241 20.7646 79.3326 20.8655 78.8508C20.9665 78.3691 21.1406 77.9329 21.388 77.5422C21.6387 77.1516 21.9853 76.8407 22.428 76.6096C22.8708 76.3785 23.4355 76.2629 24.1224 76.2629ZM29.2493 76.2336V83.3821H28.346V77.3616L26.5247 78.0256V77.2102L29.1077 76.2336H29.2493ZM36.5638 82.6399V83.3821H31.9105V82.7327L34.2396 80.1399C34.526 79.8209 34.7474 79.5507 34.9036 79.3293C35.0631 79.1047 35.1738 78.9045 35.2357 78.7288C35.3008 78.5497 35.3333 78.3674 35.3333 78.1819C35.3333 77.9475 35.2845 77.7359 35.1868 77.5471C35.0924 77.3551 34.9525 77.2021 34.7669 77.0881C34.5814 76.9742 34.3568 76.9172 34.0931 76.9172C33.7773 76.9172 33.5137 76.9791 33.3021 77.1028C33.0937 77.2232 32.9375 77.3925 32.8333 77.6106C32.7292 77.8287 32.6771 78.0793 32.6771 78.3625H31.7738C31.7738 77.9622 31.8616 77.5959 32.0374 77.2639C32.2132 76.9319 32.4736 76.6682 32.8187 76.4729C33.1637 76.2743 33.5885 76.175 34.0931 76.175C34.5423 76.175 34.9264 76.2548 35.2454 76.4143C35.5644 76.5706 35.8086 76.7919 35.9779 77.0784C36.1504 77.3616 36.2366 77.6936 36.2366 78.0745C36.2366 78.2828 36.2008 78.4944 36.1292 78.7092C36.0609 78.9208 35.9648 79.1324 35.8411 79.344C35.7207 79.5556 35.5791 79.7639 35.4163 79.969C35.2568 80.1741 35.0859 80.3759 34.9036 80.5745L32.9993 82.6399H36.5638ZM38.6732 79.9983L37.9505 79.8127L38.307 76.2727H41.9544V77.1077H39.0736L38.8587 79.0413C38.9889 78.9664 39.1533 78.8964 39.3519 78.8313C39.5537 78.7662 39.7848 78.7336 40.0452 78.7336C40.374 78.7336 40.6686 78.7906 40.929 78.9045C41.1894 79.0152 41.4108 79.1747 41.5931 79.3831C41.7786 79.5914 41.9202 79.842 42.0179 80.135C42.1155 80.428 42.1644 80.7551 42.1644 81.1165C42.1644 81.4583 42.1172 81.7724 42.0228 82.0588C41.9316 82.3453 41.7933 82.5959 41.6077 82.8108C41.4222 83.0224 41.1878 83.1868 40.9046 83.304C40.6247 83.4211 40.2943 83.4797 39.9134 83.4797C39.6269 83.4797 39.3551 83.4407 39.098 83.3625C38.8441 83.2812 38.6162 83.1591 38.4144 82.9963C38.2158 82.8303 38.053 82.6252 37.9261 82.3811C37.8024 82.1337 37.7243 81.844 37.6917 81.512H38.5511C38.5902 81.7789 38.6683 82.0035 38.7855 82.1858C38.9027 82.3681 39.0557 82.5064 39.2445 82.6008C39.4365 82.692 39.6595 82.7375 39.9134 82.7375C40.1282 82.7375 40.3187 82.7001 40.4847 82.6252C40.6507 82.5504 40.7907 82.443 40.9046 82.303C41.0185 82.163 41.1048 81.9937 41.1634 81.7952C41.2252 81.5966 41.2562 81.3736 41.2562 81.1262C41.2562 80.9016 41.2252 80.6933 41.1634 80.5012C41.1015 80.3092 41.0088 80.1415 40.8851 79.9983C40.7646 79.8551 40.6165 79.7444 40.4407 79.6663C40.265 79.5849 40.0631 79.5442 39.8353 79.5442C39.5325 79.5442 39.303 79.5849 39.1468 79.6663C38.9938 79.7476 38.8359 79.8583 38.6732 79.9983ZM47.6185 79.261V80.345C47.6185 80.9277 47.5664 81.4192 47.4622 81.8196C47.3581 82.22 47.2083 82.5422 47.013 82.7864C46.8177 83.0305 46.5817 83.2079 46.305 83.3186C46.0316 83.426 45.7223 83.4797 45.3773 83.4797C45.1038 83.4797 44.8515 83.4456 44.6204 83.3772C44.3893 83.3088 44.181 83.1998 43.9954 83.05C43.8131 82.8971 43.6569 82.6985 43.5267 82.4543C43.3965 82.2102 43.2972 81.914 43.2288 81.5657C43.1605 81.2174 43.1263 80.8105 43.1263 80.345V79.261C43.1263 78.6783 43.1784 78.19 43.2825 77.7961C43.39 77.4023 43.5413 77.0865 43.7366 76.8489C43.932 76.608 44.1663 76.4355 44.4398 76.3313C44.7165 76.2271 45.0257 76.175 45.3675 76.175C45.6442 76.175 45.8981 76.2092 46.1292 76.2776C46.3636 76.3427 46.5719 76.4485 46.7542 76.595C46.9365 76.7382 47.0911 76.9303 47.2181 77.1711C47.3483 77.4088 47.4476 77.7001 47.5159 78.0452C47.5843 78.3902 47.6185 78.7955 47.6185 79.261ZM46.7103 80.4915V79.1096C46.7103 78.7906 46.6907 78.5107 46.6517 78.2698C46.6159 78.0256 46.5622 77.8173 46.4905 77.6448C46.4189 77.4722 46.3278 77.3323 46.2171 77.2249C46.1097 77.1174 45.9844 77.0393 45.8411 76.9905C45.7012 76.9384 45.5433 76.9124 45.3675 76.9124C45.1527 76.9124 44.9622 76.953 44.7962 77.0344C44.6302 77.1125 44.4902 77.2379 44.3763 77.4104C44.2656 77.5829 44.181 77.8092 44.1224 78.0891C44.0638 78.3691 44.0345 78.7092 44.0345 79.1096V80.4915C44.0345 80.8105 44.0524 81.092 44.0882 81.3362C44.1273 81.5803 44.1842 81.7919 44.2591 81.9709C44.334 82.1467 44.4251 82.2916 44.5325 82.4055C44.64 82.5194 44.7637 82.6041 44.9036 82.6594C45.0469 82.7115 45.2047 82.7375 45.3773 82.7375C45.5986 82.7375 45.7923 82.6952 45.9583 82.6106C46.1243 82.526 46.2627 82.3941 46.3734 82.2151C46.4873 82.0328 46.5719 81.8 46.6273 81.5168C46.6826 81.2304 46.7103 80.8886 46.7103 80.4915Z" fill="#333333"/>
    <path d="M24.1224 44.149H24.2005V44.9156H24.1224C23.6439 44.9156 23.2435 44.9938 22.9212 45.15C22.5989 45.303 22.3434 45.5097 22.1546 45.7701C21.9658 46.0273 21.8291 46.317 21.7445 46.6393C21.6631 46.9615 21.6224 47.2887 21.6224 47.6207V48.6656C21.6224 48.9814 21.6598 49.2614 21.7347 49.5055C21.8096 49.7464 21.9121 49.9498 22.0423 50.1158C22.1725 50.2819 22.319 50.4072 22.4818 50.4918C22.6478 50.5765 22.8203 50.6188 22.9993 50.6188C23.2077 50.6188 23.3932 50.5797 23.556 50.5016C23.7187 50.4202 23.8555 50.3079 23.9661 50.1647C24.0801 50.0182 24.1663 49.8457 24.2249 49.6471C24.2835 49.4485 24.3128 49.2304 24.3128 48.9928C24.3128 48.7812 24.2868 48.5778 24.2347 48.3824C24.1826 48.1839 24.1029 48.0081 23.9954 47.8551C23.888 47.6989 23.7529 47.5768 23.5902 47.4889C23.4307 47.3977 23.2402 47.3522 23.0189 47.3522C22.7682 47.3522 22.5338 47.414 22.3157 47.5377C22.1009 47.6582 21.9235 47.8177 21.7835 48.0162C21.6468 48.2115 21.5687 48.4248 21.5491 48.6559L21.0706 48.651C21.1162 48.2864 21.2008 47.9755 21.3245 47.7184C21.4515 47.458 21.6077 47.2464 21.7933 47.0836C21.9821 46.9176 22.192 46.7972 22.4232 46.7223C22.6575 46.6442 22.9049 46.6051 23.1654 46.6051C23.5202 46.6051 23.8262 46.6718 24.0833 46.8053C24.3405 46.9388 24.5521 47.1178 24.7181 47.3424C24.8841 47.5638 25.0062 47.8144 25.0843 48.0944C25.1657 48.3711 25.2064 48.6559 25.2064 48.9489C25.2064 49.2841 25.1592 49.5983 25.0648 49.8912C24.9704 50.1842 24.8288 50.4414 24.64 50.6627C24.4544 50.8841 24.2249 51.0566 23.9515 51.1803C23.678 51.304 23.3607 51.3658 22.9993 51.3658C22.6152 51.3658 22.2799 51.2877 21.9935 51.1315C21.707 50.972 21.4694 50.7604 21.2806 50.4967C21.0918 50.233 20.9502 49.9401 20.8558 49.6178C20.7614 49.2955 20.7142 48.9684 20.7142 48.6364V48.2115C20.7142 47.7102 20.7646 47.2187 20.8655 46.7369C20.9665 46.2552 21.1406 45.819 21.388 45.4283C21.6387 45.0377 21.9853 44.7268 22.428 44.4957C22.8708 44.2646 23.4355 44.149 24.1224 44.149ZM27.4232 47.8844L26.7005 47.6989L27.057 44.1588H30.7044V44.9938H27.8236L27.6087 46.9274C27.7389 46.8525 27.9033 46.7825 28.1019 46.7174C28.3037 46.6523 28.5348 46.6198 28.7952 46.6198C29.124 46.6198 29.4186 46.6767 29.679 46.7906C29.9394 46.9013 30.1608 47.0608 30.3431 47.2692C30.5286 47.4775 30.6702 47.7281 30.7679 48.0211C30.8655 48.3141 30.9144 48.6412 30.9144 49.0026C30.9144 49.3444 30.8672 49.6585 30.7728 49.9449C30.6816 50.2314 30.5433 50.4821 30.3577 50.6969C30.1722 50.9085 29.9378 51.0729 29.6546 51.1901C29.3747 51.3073 29.0443 51.3658 28.6634 51.3658C28.3769 51.3658 28.1051 51.3268 27.848 51.2487C27.5941 51.1673 27.3662 51.0452 27.1644 50.8824C26.9658 50.7164 26.803 50.5114 26.6761 50.2672C26.5524 50.0198 26.4743 49.7301 26.4417 49.3981H27.3011C27.3402 49.665 27.4183 49.8896 27.5355 50.0719C27.6527 50.2542 27.8057 50.3925 27.9945 50.4869C28.1865 50.5781 28.4095 50.6237 28.6634 50.6237C28.8782 50.6237 29.0687 50.5862 29.2347 50.5114C29.4007 50.4365 29.5407 50.3291 29.6546 50.1891C29.7685 50.0491 29.8548 49.8798 29.9134 49.6813C29.9752 49.4827 30.0062 49.2597 30.0062 49.0123C30.0062 48.7877 29.9752 48.5794 29.9134 48.3873C29.8515 48.1953 29.7588 48.0276 29.6351 47.8844C29.5146 47.7412 29.3665 47.6305 29.1907 47.5524C29.015 47.471 28.8131 47.4303 28.5853 47.4303C28.2825 47.4303 28.053 47.471 27.8968 47.5524C27.7438 47.6337 27.5859 47.7444 27.4232 47.8844ZM36.3685 47.1471V48.2311C36.3685 48.8138 36.3164 49.3053 36.2122 49.7057C36.1081 50.1061 35.9583 50.4283 35.763 50.6725C35.5677 50.9166 35.3317 51.094 35.055 51.2047C34.7816 51.3121 34.4723 51.3658 34.1273 51.3658C33.8538 51.3658 33.6015 51.3317 33.3704 51.2633C33.1393 51.1949 32.931 51.0859 32.7454 50.9362C32.5631 50.7832 32.4069 50.5846 32.2767 50.3405C32.1465 50.0963 32.0472 49.8001 31.9788 49.4518C31.9105 49.1035 31.8763 48.6966 31.8763 48.2311V47.1471C31.8763 46.5644 31.9284 46.0761 32.0325 45.6823C32.14 45.2884 32.2913 44.9726 32.4866 44.735C32.682 44.4941 32.9163 44.3216 33.1898 44.2174C33.4665 44.1132 33.7757 44.0612 34.1175 44.0612C34.3942 44.0612 34.6481 44.0953 34.8792 44.1637C35.1136 44.2288 35.3219 44.3346 35.5042 44.4811C35.6865 44.6243 35.8411 44.8164 35.9681 45.0573C36.0983 45.2949 36.1976 45.5862 36.2659 45.9313C36.3343 46.2763 36.3685 46.6816 36.3685 47.1471ZM35.4603 48.3776V46.9957C35.4603 46.6767 35.4407 46.3968 35.4017 46.1559C35.3659 45.9117 35.3122 45.7034 35.2405 45.5309C35.1689 45.3584 35.0778 45.2184 34.9671 45.111C34.8597 45.0035 34.7344 44.9254 34.5911 44.8766C34.4512 44.8245 34.2933 44.7985 34.1175 44.7985C33.9027 44.7985 33.7122 44.8392 33.5462 44.9205C33.3802 44.9987 33.2402 45.124 33.1263 45.2965C33.0156 45.469 32.931 45.6953 32.8724 45.9752C32.8138 46.2552 32.7845 46.5953 32.7845 46.9957V48.3776C32.7845 48.6966 32.8024 48.9781 32.8382 49.2223C32.8773 49.4664 32.9342 49.678 33.0091 49.8571C33.084 50.0328 33.1751 50.1777 33.2825 50.2916C33.39 50.4056 33.5137 50.4902 33.6536 50.5455C33.7969 50.5976 33.9547 50.6237 34.1273 50.6237C34.3486 50.6237 34.5423 50.5813 34.7083 50.4967C34.8743 50.4121 35.0127 50.2802 35.1234 50.1012C35.2373 49.9189 35.3219 49.6862 35.3773 49.403C35.4326 49.1165 35.4603 48.7747 35.4603 48.3776ZM41.9935 47.1471V48.2311C41.9935 48.8138 41.9414 49.3053 41.8372 49.7057C41.7331 50.1061 41.5833 50.4283 41.388 50.6725C41.1927 50.9166 40.9567 51.094 40.68 51.2047C40.4066 51.3121 40.0973 51.3658 39.7523 51.3658C39.4788 51.3658 39.2265 51.3317 38.9954 51.2633C38.7643 51.1949 38.556 51.0859 38.3704 50.9362C38.1881 50.7832 38.0319 50.5846 37.9017 50.3405C37.7715 50.0963 37.6722 49.8001 37.6038 49.4518C37.5355 49.1035 37.5013 48.6966 37.5013 48.2311V47.1471C37.5013 46.5644 37.5534 46.0761 37.6575 45.6823C37.765 45.2884 37.9163 44.9726 38.1116 44.735C38.307 44.4941 38.5413 44.3216 38.8148 44.2174C39.0915 44.1132 39.4007 44.0612 39.7425 44.0612C40.0192 44.0612 40.2731 44.0953 40.5042 44.1637C40.7386 44.2288 40.9469 44.3346 41.1292 44.4811C41.3115 44.6243 41.4661 44.8164 41.5931 45.0573C41.7233 45.2949 41.8226 45.5862 41.8909 45.9313C41.9593 46.2763 41.9935 46.6816 41.9935 47.1471ZM41.0853 48.3776V46.9957C41.0853 46.6767 41.0657 46.3968 41.0267 46.1559C40.9909 45.9117 40.9372 45.7034 40.8655 45.5309C40.7939 45.3584 40.7028 45.2184 40.5921 45.111C40.4847 45.0035 40.3594 44.9254 40.2161 44.8766C40.0762 44.8245 39.9183 44.7985 39.7425 44.7985C39.5277 44.7985 39.3372 44.8392 39.1712 44.9205C39.0052 44.9987 38.8652 45.124 38.7513 45.2965C38.6406 45.469 38.556 45.6953 38.4974 45.9752C38.4388 46.2552 38.4095 46.5953 38.4095 46.9957V48.3776C38.4095 48.6966 38.4274 48.9781 38.4632 49.2223C38.5023 49.4664 38.5592 49.678 38.6341 49.8571C38.709 50.0328 38.8001 50.1777 38.9075 50.2916C39.015 50.4056 39.1387 50.4902 39.2786 50.5455C39.4219 50.5976 39.5797 50.6237 39.7523 50.6237C39.9736 50.6237 40.1673 50.5813 40.3333 50.4967C40.4993 50.4121 40.6377 50.2802 40.7484 50.1012C40.8623 49.9189 40.9469 49.6862 41.0023 49.403C41.0576 49.1165 41.0853 48.7747 41.0853 48.3776ZM47.6185 47.1471V48.2311C47.6185 48.8138 47.5664 49.3053 47.4622 49.7057C47.3581 50.1061 47.2083 50.4283 47.013 50.6725C46.8177 50.9166 46.5817 51.094 46.305 51.2047C46.0316 51.3121 45.7223 51.3658 45.3773 51.3658C45.1038 51.3658 44.8515 51.3317 44.6204 51.2633C44.3893 51.1949 44.181 51.0859 43.9954 50.9362C43.8131 50.7832 43.6569 50.5846 43.5267 50.3405C43.3965 50.0963 43.2972 49.8001 43.2288 49.4518C43.1605 49.1035 43.1263 48.6966 43.1263 48.2311V47.1471C43.1263 46.5644 43.1784 46.0761 43.2825 45.6823C43.39 45.2884 43.5413 44.9726 43.7366 44.735C43.932 44.4941 44.1663 44.3216 44.4398 44.2174C44.7165 44.1132 45.0257 44.0612 45.3675 44.0612C45.6442 44.0612 45.8981 44.0953 46.1292 44.1637C46.3636 44.2288 46.5719 44.3346 46.7542 44.4811C46.9365 44.6243 47.0911 44.8164 47.2181 45.0573C47.3483 45.2949 47.4476 45.5862 47.5159 45.9313C47.5843 46.2763 47.6185 46.6816 47.6185 47.1471ZM46.7103 48.3776V46.9957C46.7103 46.6767 46.6907 46.3968 46.6517 46.1559C46.6159 45.9117 46.5622 45.7034 46.4905 45.5309C46.4189 45.3584 46.3278 45.2184 46.2171 45.111C46.1097 45.0035 45.9844 44.9254 45.8411 44.8766C45.7012 44.8245 45.5433 44.7985 45.3675 44.7985C45.1527 44.7985 44.9622 44.8392 44.7962 44.9205C44.6302 44.9987 44.4902 45.124 44.3763 45.2965C44.2656 45.469 44.181 45.6953 44.1224 45.9752C44.0638 46.2552 44.0345 46.5953 44.0345 46.9957V48.3776C44.0345 48.6966 44.0524 48.9781 44.0882 49.2223C44.1273 49.4664 44.1842 49.678 44.2591 49.8571C44.334 50.0328 44.4251 50.1777 44.5325 50.2916C44.64 50.4056 44.7637 50.4902 44.9036 50.5455C45.0469 50.5976 45.2047 50.6237 45.3773 50.6237C45.5986 50.6237 45.7923 50.5813 45.9583 50.4967C46.1243 50.4121 46.2627 50.2802 46.3734 50.1012C46.4873 49.9189 46.5719 49.6862 46.6273 49.403C46.6826 49.1165 46.7103 48.7747 46.7103 48.3776Z" fill="#333333"/>
    <path d="M60.3316 206.372V207.114H55.6782V206.465L58.0073 203.872C58.2938 203.553 58.5151 203.283 58.6714 203.061C58.8309 202.837 58.9416 202.636 59.0034 202.461C59.0685 202.282 59.1011 202.099 59.1011 201.914C59.1011 201.679 59.0523 201.468 58.9546 201.279C58.8602 201.087 58.7202 200.934 58.5347 200.82C58.3491 200.706 58.1245 200.649 57.8608 200.649C57.5451 200.649 57.2814 200.711 57.0698 200.835C56.8615 200.955 56.7052 201.124 56.6011 201.343C56.4969 201.561 56.4448 201.811 56.4448 202.094H55.5415C55.5415 201.694 55.6294 201.328 55.8052 200.996C55.981 200.664 56.2414 200.4 56.5864 200.205C56.9315 200.006 57.3563 199.907 57.8608 199.907C58.3101 199.907 58.6942 199.987 59.0132 200.146C59.3322 200.302 59.5763 200.524 59.7456 200.81C59.9181 201.094 60.0044 201.426 60.0044 201.806C60.0044 202.015 59.9686 202.226 59.897 202.441C59.8286 202.653 59.7326 202.864 59.6089 203.076C59.4885 203.288 59.3469 203.496 59.1841 203.701C59.0246 203.906 58.8537 204.108 58.6714 204.306L56.7671 206.372H60.3316ZM65.9566 206.372V207.114H61.3032V206.465L63.6323 203.872C63.9188 203.553 64.1401 203.283 64.2964 203.061C64.4559 202.837 64.5666 202.636 64.6284 202.461C64.6935 202.282 64.7261 202.099 64.7261 201.914C64.7261 201.679 64.6773 201.468 64.5796 201.279C64.4852 201.087 64.3452 200.934 64.1597 200.82C63.9741 200.706 63.7495 200.649 63.4858 200.649C63.1701 200.649 62.9064 200.711 62.6948 200.835C62.4865 200.955 62.3302 201.124 62.2261 201.343C62.1219 201.561 62.0698 201.811 62.0698 202.094H61.1665C61.1665 201.694 61.2544 201.328 61.4302 200.996C61.606 200.664 61.8664 200.4 62.2114 200.205C62.5565 200.006 62.9813 199.907 63.4858 199.907C63.9351 199.907 64.3192 199.987 64.6382 200.146C64.9572 200.302 65.2013 200.524 65.3706 200.81C65.5431 201.094 65.6294 201.426 65.6294 201.806C65.6294 202.015 65.5936 202.226 65.522 202.441C65.4536 202.653 65.3576 202.864 65.2339 203.076C65.1135 203.288 64.9719 203.496 64.8091 203.701C64.6496 203.906 64.4787 204.108 64.2964 204.306L62.3921 206.372H65.9566ZM67.0357 206.635C67.0357 206.483 67.0829 206.354 67.1773 206.25C67.2749 206.142 67.4149 206.089 67.5972 206.089C67.7795 206.089 67.9178 206.142 68.0122 206.25C68.1099 206.354 68.1587 206.483 68.1587 206.635C68.1587 206.785 68.1099 206.912 68.0122 207.016C67.9178 207.121 67.7795 207.173 67.5972 207.173C67.4149 207.173 67.2749 207.121 67.1773 207.016C67.0829 206.912 67.0357 206.785 67.0357 206.635ZM72.5288 199.966V207.114H71.6255V201.094L69.8042 201.758V200.942L72.3872 199.966H72.5288ZM79.648 202.993V204.077C79.648 204.66 79.5959 205.151 79.4917 205.552C79.3875 205.952 79.2378 206.274 79.0425 206.518C78.8472 206.762 78.6112 206.94 78.3345 207.051C78.061 207.158 77.7518 207.212 77.4067 207.212C77.1333 207.212 76.881 207.177 76.6499 207.109C76.4188 207.041 76.2105 206.932 76.0249 206.782C75.8426 206.629 75.6864 206.43 75.5562 206.186C75.426 205.942 75.3267 205.646 75.2583 205.298C75.1899 204.949 75.1558 204.542 75.1558 204.077V202.993C75.1558 202.41 75.2079 201.922 75.312 201.528C75.4194 201.134 75.5708 200.818 75.7661 200.581C75.9614 200.34 76.1958 200.167 76.4692 200.063C76.7459 199.959 77.0552 199.907 77.397 199.907C77.6737 199.907 77.9276 199.941 78.1587 200.01C78.3931 200.075 78.6014 200.18 78.7837 200.327C78.966 200.47 79.1206 200.662 79.2476 200.903C79.3778 201.141 79.4771 201.432 79.5454 201.777C79.6138 202.122 79.648 202.527 79.648 202.993ZM78.7398 204.223V202.842C78.7398 202.523 78.7202 202.243 78.6812 202.002C78.6454 201.758 78.5916 201.549 78.52 201.377C78.4484 201.204 78.3573 201.064 78.2466 200.957C78.1392 200.849 78.0138 200.771 77.8706 200.722C77.7306 200.67 77.5728 200.644 77.397 200.644C77.1821 200.644 76.9917 200.685 76.8257 200.766C76.6597 200.844 76.5197 200.97 76.4058 201.142C76.2951 201.315 76.2105 201.541 76.1519 201.821C76.0933 202.101 76.064 202.441 76.064 202.842V204.223C76.064 204.542 76.0819 204.824 76.1177 205.068C76.1567 205.312 76.2137 205.524 76.2886 205.703C76.3635 205.879 76.4546 206.024 76.562 206.137C76.6694 206.251 76.7931 206.336 76.9331 206.391C77.0763 206.443 77.2342 206.469 77.4067 206.469C77.6281 206.469 77.8218 206.427 77.9878 206.343C78.1538 206.258 78.2922 206.126 78.4028 205.947C78.5168 205.765 78.6014 205.532 78.6567 205.249C78.7121 204.962 78.7398 204.621 78.7398 204.223Z" fill="#333333"/>
    <path d="M171.601 206.372V207.114H166.947V206.465L169.276 203.872C169.563 203.553 169.784 203.283 169.94 203.061C170.1 202.837 170.211 202.636 170.272 202.461C170.338 202.282 170.37 202.099 170.37 201.914C170.37 201.679 170.321 201.468 170.224 201.279C170.129 201.087 169.989 200.934 169.804 200.82C169.618 200.706 169.394 200.649 169.13 200.649C168.814 200.649 168.55 200.711 168.339 200.835C168.131 200.955 167.974 201.124 167.87 201.343C167.766 201.561 167.714 201.811 167.714 202.094H166.811C166.811 201.694 166.898 201.328 167.074 200.996C167.25 200.664 167.51 200.4 167.855 200.205C168.201 200.006 168.625 199.907 169.13 199.907C169.579 199.907 169.963 199.987 170.282 200.146C170.601 200.302 170.845 200.524 171.015 200.81C171.187 201.094 171.273 201.426 171.273 201.806C171.273 202.015 171.238 202.226 171.166 202.441C171.098 202.653 171.002 202.864 170.878 203.076C170.757 203.288 170.616 203.496 170.453 203.701C170.294 203.906 170.123 204.108 169.94 204.306L168.036 206.372H171.601ZM177.226 206.372V207.114H172.572V206.465L174.901 203.872C175.188 203.553 175.409 203.283 175.565 203.061C175.725 202.837 175.836 202.636 175.897 202.461C175.963 202.282 175.995 202.099 175.995 201.914C175.995 201.679 175.946 201.468 175.849 201.279C175.754 201.087 175.614 200.934 175.429 200.82C175.243 200.706 175.019 200.649 174.755 200.649C174.439 200.649 174.175 200.711 173.964 200.835C173.756 200.955 173.599 201.124 173.495 201.343C173.391 201.561 173.339 201.811 173.339 202.094H172.436C172.436 201.694 172.523 201.328 172.699 200.996C172.875 200.664 173.135 200.4 173.48 200.205C173.826 200.006 174.25 199.907 174.755 199.907C175.204 199.907 175.588 199.987 175.907 200.146C176.226 200.302 176.47 200.524 176.64 200.81C176.812 201.094 176.898 201.426 176.898 201.806C176.898 202.015 176.863 202.226 176.791 202.441C176.723 202.653 176.627 202.864 176.503 203.076C176.382 203.288 176.241 203.496 176.078 203.701C175.919 203.906 175.748 204.108 175.565 204.306L173.661 206.372H177.226ZM178.305 206.635C178.305 206.483 178.352 206.354 178.446 206.25C178.544 206.142 178.684 206.089 178.866 206.089C179.049 206.089 179.187 206.142 179.281 206.25C179.379 206.354 179.428 206.483 179.428 206.635C179.428 206.785 179.379 206.912 179.281 207.016C179.187 207.121 179.049 207.173 178.866 207.173C178.684 207.173 178.544 207.121 178.446 207.016C178.352 206.912 178.305 206.785 178.305 206.635ZM183.798 199.966V207.114H182.895V201.094L181.073 201.758V200.942L183.656 199.966H183.798ZM189.423 199.966V207.114H188.52V201.094L186.698 201.758V200.942L189.281 199.966H189.423Z" fill="#333333"/>
    <path d="M292.075 206.372V207.114H287.422V206.465L289.751 203.872C290.037 203.553 290.258 203.283 290.415 203.061C290.574 202.837 290.685 202.636 290.747 202.461C290.812 202.282 290.844 202.099 290.844 201.914C290.844 201.679 290.796 201.468 290.698 201.279C290.603 201.087 290.464 200.934 290.278 200.82C290.092 200.706 289.868 200.649 289.604 200.649C289.288 200.649 289.025 200.711 288.813 200.835C288.605 200.955 288.449 201.124 288.344 201.343C288.24 201.561 288.188 201.811 288.188 202.094H287.285C287.285 201.694 287.373 201.328 287.548 200.996C287.724 200.664 287.985 200.4 288.33 200.205C288.675 200.006 289.1 199.907 289.604 199.907C290.053 199.907 290.437 199.987 290.756 200.146C291.075 200.302 291.32 200.524 291.489 200.81C291.661 201.094 291.748 201.426 291.748 201.806C291.748 202.015 291.712 202.226 291.64 202.441C291.572 202.653 291.476 202.864 291.352 203.076C291.232 203.288 291.09 203.496 290.927 203.701C290.768 203.906 290.597 204.108 290.415 204.306L288.51 206.372H292.075ZM297.7 206.372V207.114H293.047V206.465L295.376 203.872C295.662 203.553 295.883 203.283 296.04 203.061C296.199 202.837 296.31 202.636 296.372 202.461C296.437 202.282 296.469 202.099 296.469 201.914C296.469 201.679 296.421 201.468 296.323 201.279C296.228 201.087 296.089 200.934 295.903 200.82C295.717 200.706 295.493 200.649 295.229 200.649C294.913 200.649 294.65 200.711 294.438 200.835C294.23 200.955 294.074 201.124 293.969 201.343C293.865 201.561 293.813 201.811 293.813 202.094H292.91C292.91 201.694 292.998 201.328 293.173 200.996C293.349 200.664 293.61 200.4 293.955 200.205C294.3 200.006 294.725 199.907 295.229 199.907C295.678 199.907 296.062 199.987 296.381 200.146C296.7 200.302 296.945 200.524 297.114 200.81C297.286 201.094 297.373 201.426 297.373 201.806C297.373 202.015 297.337 202.226 297.265 202.441C297.197 202.653 297.101 202.864 296.977 203.076C296.857 203.288 296.715 203.496 296.552 203.701C296.393 203.906 296.222 204.108 296.04 204.306L294.135 206.372H297.7ZM298.779 206.635C298.779 206.483 298.826 206.354 298.921 206.25C299.018 206.142 299.158 206.089 299.34 206.089C299.523 206.089 299.661 206.142 299.756 206.25C299.853 206.354 299.902 206.483 299.902 206.635C299.902 206.785 299.853 206.912 299.756 207.016C299.661 207.121 299.523 207.173 299.34 207.173C299.158 207.173 299.018 207.121 298.921 207.016C298.826 206.912 298.779 206.785 298.779 206.635ZM304.272 199.966V207.114H303.369V201.094L301.547 201.758V200.942L304.131 199.966H304.272ZM311.587 206.372V207.114H306.933V206.465L309.262 203.872C309.549 203.553 309.77 203.283 309.926 203.061C310.086 202.837 310.197 202.636 310.258 202.461C310.324 202.282 310.356 202.099 310.356 201.914C310.356 201.679 310.307 201.468 310.21 201.279C310.115 201.087 309.975 200.934 309.79 200.82C309.604 200.706 309.38 200.649 309.116 200.649C308.8 200.649 308.536 200.711 308.325 200.835C308.117 200.955 307.96 201.124 307.856 201.343C307.752 201.561 307.7 201.811 307.7 202.094H306.797C306.797 201.694 306.884 201.328 307.06 200.996C307.236 200.664 307.496 200.4 307.841 200.205C308.186 200.006 308.611 199.907 309.116 199.907C309.565 199.907 309.949 199.987 310.268 200.146C310.587 200.302 310.831 200.524 311.001 200.81C311.173 201.094 311.259 201.426 311.259 201.806C311.259 202.015 311.224 202.226 311.152 202.441C311.084 202.653 310.988 202.864 310.864 203.076C310.743 203.288 310.602 203.496 310.439 203.701C310.28 203.906 310.109 204.108 309.926 204.306L308.022 206.372H311.587Z" fill="#333333"/>
    <path d="M411.623 206.372V207.114H406.969V206.465L409.298 203.872C409.585 203.553 409.806 203.283 409.963 203.061C410.122 202.837 410.233 202.636 410.295 202.461C410.36 202.282 410.392 202.099 410.392 201.914C410.392 201.679 410.343 201.468 410.246 201.279C410.151 201.087 410.011 200.934 409.826 200.82C409.64 200.706 409.416 200.649 409.152 200.649C408.836 200.649 408.573 200.711 408.361 200.835C408.153 200.955 407.996 201.124 407.892 201.343C407.788 201.561 407.736 201.811 407.736 202.094H406.833C406.833 201.694 406.921 201.328 407.096 200.996C407.272 200.664 407.533 200.4 407.878 200.205C408.223 200.006 408.647 199.907 409.152 199.907C409.601 199.907 409.985 199.987 410.304 200.146C410.623 200.302 410.867 200.524 411.037 200.81C411.209 201.094 411.296 201.426 411.296 201.806C411.296 202.015 411.26 202.226 411.188 202.441C411.12 202.653 411.024 202.864 410.9 203.076C410.78 203.288 410.638 203.496 410.475 203.701C410.316 203.906 410.145 204.108 409.963 204.306L408.058 206.372H411.623ZM413.908 203.115H414.552C414.868 203.115 415.129 203.063 415.334 202.959C415.542 202.851 415.697 202.706 415.797 202.524C415.902 202.339 415.954 202.13 415.954 201.899C415.954 201.626 415.908 201.396 415.817 201.211C415.726 201.025 415.589 200.885 415.407 200.791C415.225 200.696 414.993 200.649 414.714 200.649C414.46 200.649 414.235 200.7 414.04 200.801C413.848 200.898 413.696 201.038 413.586 201.22C413.478 201.403 413.424 201.618 413.424 201.865H412.521C412.521 201.504 412.612 201.175 412.795 200.879C412.977 200.582 413.232 200.346 413.561 200.171C413.893 199.995 414.277 199.907 414.714 199.907C415.143 199.907 415.519 199.983 415.841 200.136C416.164 200.286 416.414 200.511 416.593 200.81C416.772 201.107 416.862 201.476 416.862 201.919C416.862 202.098 416.82 202.29 416.735 202.495C416.654 202.697 416.525 202.885 416.349 203.061C416.177 203.237 415.952 203.382 415.675 203.496C415.399 203.607 415.067 203.662 414.679 203.662H413.908V203.115ZM413.908 203.857V203.315H414.679C415.132 203.315 415.506 203.369 415.802 203.476C416.099 203.584 416.331 203.727 416.501 203.906C416.673 204.085 416.794 204.282 416.862 204.497C416.934 204.708 416.969 204.92 416.969 205.132C416.969 205.464 416.912 205.758 416.798 206.015C416.688 206.273 416.53 206.491 416.325 206.67C416.123 206.849 415.885 206.984 415.612 207.075C415.339 207.166 415.041 207.212 414.718 207.212C414.409 207.212 414.118 207.168 413.844 207.08C413.574 206.992 413.335 206.865 413.127 206.699C412.918 206.53 412.756 206.323 412.638 206.079C412.521 205.831 412.463 205.55 412.463 205.234H413.366C413.366 205.482 413.42 205.698 413.527 205.884C413.638 206.069 413.794 206.214 413.996 206.318C414.201 206.419 414.442 206.469 414.718 206.469C414.995 206.469 415.233 206.422 415.431 206.328C415.633 206.23 415.788 206.084 415.895 205.888C416.006 205.693 416.061 205.447 416.061 205.151C416.061 204.855 415.999 204.612 415.876 204.424C415.752 204.232 415.576 204.09 415.348 203.999C415.124 203.904 414.858 203.857 414.552 203.857H413.908ZM418.327 206.635C418.327 206.483 418.374 206.354 418.468 206.25C418.566 206.142 418.706 206.089 418.888 206.089C419.071 206.089 419.209 206.142 419.303 206.25C419.401 206.354 419.45 206.483 419.45 206.635C419.45 206.785 419.401 206.912 419.303 207.016C419.209 207.121 419.071 207.173 418.888 207.173C418.706 207.173 418.566 207.121 418.468 207.016C418.374 206.912 418.327 206.785 418.327 206.635ZM425.314 202.993V204.077C425.314 204.66 425.262 205.151 425.158 205.552C425.054 205.952 424.904 206.274 424.709 206.518C424.513 206.762 424.277 206.94 424.001 207.051C423.727 207.158 423.418 207.212 423.073 207.212C422.799 207.212 422.547 207.177 422.316 207.109C422.085 207.041 421.877 206.932 421.691 206.782C421.509 206.629 421.353 206.43 421.222 206.186C421.092 205.942 420.993 205.646 420.924 205.298C420.856 204.949 420.822 204.542 420.822 204.077V202.993C420.822 202.41 420.874 201.922 420.978 201.528C421.086 201.134 421.237 200.818 421.432 200.581C421.628 200.34 421.862 200.167 422.135 200.063C422.412 199.959 422.721 199.907 423.063 199.907C423.34 199.907 423.594 199.941 423.825 200.01C424.059 200.075 424.268 200.18 424.45 200.327C424.632 200.47 424.787 200.662 424.914 200.903C425.044 201.141 425.143 201.432 425.212 201.777C425.28 202.122 425.314 202.527 425.314 202.993ZM424.406 204.223V202.842C424.406 202.523 424.386 202.243 424.347 202.002C424.311 201.758 424.258 201.549 424.186 201.377C424.115 201.204 424.023 201.064 423.913 200.957C423.805 200.849 423.68 200.771 423.537 200.722C423.397 200.67 423.239 200.644 423.063 200.644C422.848 200.644 422.658 200.685 422.492 200.766C422.326 200.844 422.186 200.97 422.072 201.142C421.961 201.315 421.877 201.541 421.818 201.821C421.759 202.101 421.73 202.441 421.73 202.842V204.223C421.73 204.542 421.748 204.824 421.784 205.068C421.823 205.312 421.88 205.524 421.955 205.703C422.03 205.879 422.121 206.024 422.228 206.137C422.336 206.251 422.459 206.336 422.599 206.391C422.742 206.443 422.9 206.469 423.073 206.469C423.294 206.469 423.488 206.427 423.654 206.343C423.82 206.258 423.958 206.126 424.069 205.947C424.183 205.765 424.268 205.532 424.323 205.249C424.378 204.962 424.406 204.621 424.406 204.223ZM429.445 199.966V207.114H428.542V201.094L426.72 201.758V200.942L429.303 199.966H429.445Z" fill="#333333"/>
    <path d="M532.097 206.372V207.114H527.444V206.465L529.773 203.872C530.059 203.553 530.281 203.283 530.437 203.061C530.596 202.837 530.707 202.636 530.769 202.461C530.834 202.282 530.866 202.099 530.866 201.914C530.866 201.679 530.818 201.468 530.72 201.279C530.626 201.087 530.486 200.934 530.3 200.82C530.115 200.706 529.89 200.649 529.626 200.649C529.31 200.649 529.047 200.711 528.835 200.835C528.627 200.955 528.471 201.124 528.366 201.343C528.262 201.561 528.21 201.811 528.21 202.094H527.307C527.307 201.694 527.395 201.328 527.571 200.996C527.746 200.664 528.007 200.4 528.352 200.205C528.697 200.006 529.122 199.907 529.626 199.907C530.075 199.907 530.46 199.987 530.779 200.146C531.098 200.302 531.342 200.524 531.511 200.81C531.684 201.094 531.77 201.426 531.77 201.806C531.77 202.015 531.734 202.226 531.662 202.441C531.594 202.653 531.498 202.864 531.374 203.076C531.254 203.288 531.112 203.496 530.949 203.701C530.79 203.906 530.619 204.108 530.437 204.306L528.532 206.372H532.097ZM534.382 203.115H535.027C535.342 203.115 535.603 203.063 535.808 202.959C536.016 202.851 536.171 202.706 536.272 202.524C536.376 202.339 536.428 202.13 536.428 201.899C536.428 201.626 536.382 201.396 536.291 201.211C536.2 201.025 536.063 200.885 535.881 200.791C535.699 200.696 535.468 200.649 535.188 200.649C534.934 200.649 534.709 200.7 534.514 200.801C534.322 200.898 534.17 201.038 534.06 201.22C533.952 201.403 533.899 201.618 533.899 201.865H532.995C532.995 201.504 533.087 201.175 533.269 200.879C533.451 200.582 533.707 200.346 534.035 200.171C534.367 199.995 534.752 199.907 535.188 199.907C535.617 199.907 535.993 199.983 536.316 200.136C536.638 200.286 536.889 200.511 537.068 200.81C537.247 201.107 537.336 201.476 537.336 201.919C537.336 202.098 537.294 202.29 537.209 202.495C537.128 202.697 536.999 202.885 536.823 203.061C536.651 203.237 536.426 203.382 536.15 203.496C535.873 203.607 535.541 203.662 535.154 203.662H534.382V203.115ZM534.382 203.857V203.315H535.154C535.606 203.315 535.98 203.369 536.277 203.476C536.573 203.584 536.806 203.727 536.975 203.906C537.147 204.085 537.268 204.282 537.336 204.497C537.408 204.708 537.444 204.92 537.444 205.132C537.444 205.464 537.387 205.758 537.273 206.015C537.162 206.273 537.004 206.491 536.799 206.67C536.597 206.849 536.36 206.984 536.086 207.075C535.813 207.166 535.515 207.212 535.193 207.212C534.883 207.212 534.592 207.168 534.319 207.08C534.048 206.992 533.809 206.865 533.601 206.699C533.393 206.53 533.23 206.323 533.113 206.079C532.995 205.831 532.937 205.55 532.937 205.234H533.84C533.84 205.482 533.894 205.698 534.001 205.884C534.112 206.069 534.268 206.214 534.47 206.318C534.675 206.419 534.916 206.469 535.193 206.469C535.469 206.469 535.707 206.422 535.906 206.328C536.107 206.23 536.262 206.084 536.369 205.888C536.48 205.693 536.535 205.447 536.535 205.151C536.535 204.855 536.474 204.612 536.35 204.424C536.226 204.232 536.05 204.09 535.823 203.999C535.598 203.904 535.333 203.857 535.027 203.857H534.382ZM538.801 206.635C538.801 206.483 538.848 206.354 538.943 206.25C539.04 206.142 539.18 206.089 539.363 206.089C539.545 206.089 539.683 206.142 539.778 206.25C539.875 206.354 539.924 206.483 539.924 206.635C539.924 206.785 539.875 206.912 539.778 207.016C539.683 207.121 539.545 207.173 539.363 207.173C539.18 207.173 539.04 207.121 538.943 207.016C538.848 206.912 538.801 206.785 538.801 206.635ZM545.788 202.993V204.077C545.788 204.66 545.736 205.151 545.632 205.552C545.528 205.952 545.378 206.274 545.183 206.518C544.988 206.762 544.752 206.94 544.475 207.051C544.201 207.158 543.892 207.212 543.547 207.212C543.274 207.212 543.021 207.177 542.79 207.109C542.559 207.041 542.351 206.932 542.165 206.782C541.983 206.629 541.827 206.43 541.697 206.186C541.566 205.942 541.467 205.646 541.399 205.298C541.33 204.949 541.296 204.542 541.296 204.077V202.993C541.296 202.41 541.348 201.922 541.452 201.528C541.56 201.134 541.711 200.818 541.907 200.581C542.102 200.34 542.336 200.167 542.61 200.063C542.886 199.959 543.196 199.907 543.537 199.907C543.814 199.907 544.068 199.941 544.299 200.01C544.533 200.075 544.742 200.18 544.924 200.327C545.106 200.47 545.261 200.662 545.388 200.903C545.518 201.141 545.617 201.432 545.686 201.777C545.754 202.122 545.788 202.527 545.788 202.993ZM544.88 204.223V202.842C544.88 202.523 544.861 202.243 544.822 202.002C544.786 201.758 544.732 201.549 544.66 201.377C544.589 201.204 544.498 201.064 544.387 200.957C544.28 200.849 544.154 200.771 544.011 200.722C543.871 200.67 543.713 200.644 543.537 200.644C543.323 200.644 543.132 200.685 542.966 200.766C542.8 200.844 542.66 200.97 542.546 201.142C542.435 201.315 542.351 201.541 542.292 201.821C542.234 202.101 542.204 202.441 542.204 202.842V204.223C542.204 204.542 542.222 204.824 542.258 205.068C542.297 205.312 542.354 205.524 542.429 205.703C542.504 205.879 542.595 206.024 542.702 206.137C542.81 206.251 542.934 206.336 543.073 206.391C543.217 206.443 543.375 206.469 543.547 206.469C543.768 206.469 543.962 206.427 544.128 206.343C544.294 206.258 544.433 206.126 544.543 205.947C544.657 205.765 544.742 205.532 544.797 205.249C544.852 204.962 544.88 204.621 544.88 204.223ZM551.609 206.372V207.114H546.955V206.465L549.284 203.872C549.571 203.553 549.792 203.283 549.948 203.061C550.108 202.837 550.219 202.636 550.281 202.461C550.346 202.282 550.378 202.099 550.378 201.914C550.378 201.679 550.329 201.468 550.232 201.279C550.137 201.087 549.997 200.934 549.812 200.82C549.626 200.706 549.402 200.649 549.138 200.649C548.822 200.649 548.559 200.711 548.347 200.835C548.139 200.955 547.982 201.124 547.878 201.343C547.774 201.561 547.722 201.811 547.722 202.094H546.819C546.819 201.694 546.907 201.328 547.082 200.996C547.258 200.664 547.518 200.4 547.864 200.205C548.209 200.006 548.633 199.907 549.138 199.907C549.587 199.907 549.971 199.987 550.29 200.146C550.609 200.302 550.853 200.524 551.023 200.81C551.195 201.094 551.282 201.426 551.282 201.806C551.282 202.015 551.246 202.226 551.174 202.441C551.106 202.653 551.01 202.864 550.886 203.076C550.766 203.288 550.624 203.496 550.461 203.701C550.302 203.906 550.131 204.108 549.948 204.306L548.044 206.372H551.609Z" fill="#333333"/>
    <path d="M643.366 206.372V207.114H638.713V206.465L641.042 203.872C641.328 203.553 641.55 203.283 641.706 203.061C641.865 202.837 641.976 202.636 642.038 202.461C642.103 202.282 642.136 202.099 642.136 201.914C642.136 201.679 642.087 201.468 641.989 201.279C641.895 201.087 641.755 200.934 641.569 200.82C641.384 200.706 641.159 200.649 640.895 200.649C640.58 200.649 640.316 200.711 640.104 200.835C639.896 200.955 639.74 201.124 639.636 201.343C639.531 201.561 639.479 201.811 639.479 202.094H638.576C638.576 201.694 638.664 201.328 638.84 200.996C639.015 200.664 639.276 200.4 639.621 200.205C639.966 200.006 640.391 199.907 640.895 199.907C641.344 199.907 641.729 199.987 642.048 200.146C642.367 200.302 642.611 200.524 642.78 200.81C642.953 201.094 643.039 201.426 643.039 201.806C643.039 202.015 643.003 202.226 642.931 202.441C642.863 202.653 642.767 202.864 642.643 203.076C642.523 203.288 642.381 203.496 642.219 203.701C642.059 203.906 641.888 204.108 641.706 204.306L639.802 206.372H643.366ZM645.651 203.115H646.296C646.611 203.115 646.872 203.063 647.077 202.959C647.285 202.851 647.44 202.706 647.541 202.524C647.645 202.339 647.697 202.13 647.697 201.899C647.697 201.626 647.651 201.396 647.56 201.211C647.469 201.025 647.332 200.885 647.15 200.791C646.968 200.696 646.737 200.649 646.457 200.649C646.203 200.649 645.978 200.7 645.783 200.801C645.591 200.898 645.44 201.038 645.329 201.22C645.221 201.403 645.168 201.618 645.168 201.865H644.264C644.264 201.504 644.356 201.175 644.538 200.879C644.72 200.582 644.976 200.346 645.304 200.171C645.636 199.995 646.021 199.907 646.457 199.907C646.886 199.907 647.262 199.983 647.585 200.136C647.907 200.286 648.158 200.511 648.337 200.81C648.516 201.107 648.605 201.476 648.605 201.919C648.605 202.098 648.563 202.29 648.478 202.495C648.397 202.697 648.268 202.885 648.093 203.061C647.92 203.237 647.695 203.382 647.419 203.496C647.142 203.607 646.81 203.662 646.423 203.662H645.651V203.115ZM645.651 203.857V203.315H646.423C646.875 203.315 647.249 203.369 647.546 203.476C647.842 203.584 648.075 203.727 648.244 203.906C648.416 204.085 648.537 204.282 648.605 204.497C648.677 204.708 648.713 204.92 648.713 205.132C648.713 205.464 648.656 205.758 648.542 206.015C648.431 206.273 648.273 206.491 648.068 206.67C647.866 206.849 647.629 206.984 647.355 207.075C647.082 207.166 646.784 207.212 646.462 207.212C646.152 207.212 645.861 207.168 645.588 207.08C645.317 206.992 645.078 206.865 644.87 206.699C644.662 206.53 644.499 206.323 644.382 206.079C644.264 205.831 644.206 205.55 644.206 205.234H645.109C645.109 205.482 645.163 205.698 645.27 205.884C645.381 206.069 645.537 206.214 645.739 206.318C645.944 206.419 646.185 206.469 646.462 206.469C646.738 206.469 646.976 206.422 647.175 206.328C647.376 206.23 647.531 206.084 647.638 205.888C647.749 205.693 647.804 205.447 647.804 205.151C647.804 204.855 647.743 204.612 647.619 204.424C647.495 204.232 647.319 204.09 647.092 203.999C646.867 203.904 646.602 203.857 646.296 203.857H645.651ZM650.07 206.635C650.07 206.483 650.117 206.354 650.212 206.25C650.309 206.142 650.449 206.089 650.632 206.089C650.814 206.089 650.952 206.142 651.047 206.25C651.144 206.354 651.193 206.483 651.193 206.635C651.193 206.785 651.144 206.912 651.047 207.016C650.952 207.121 650.814 207.173 650.632 207.173C650.449 207.173 650.309 207.121 650.212 207.016C650.117 206.912 650.07 206.785 650.07 206.635ZM657.057 202.993V204.077C657.057 204.66 657.005 205.151 656.901 205.552C656.797 205.952 656.647 206.274 656.452 206.518C656.257 206.762 656.021 206.94 655.744 207.051C655.47 207.158 655.161 207.212 654.816 207.212C654.543 207.212 654.29 207.177 654.059 207.109C653.828 207.041 653.62 206.932 653.434 206.782C653.252 206.629 653.096 206.43 652.966 206.186C652.835 205.942 652.736 205.646 652.668 205.298C652.599 204.949 652.565 204.542 652.565 204.077V202.993C652.565 202.41 652.617 201.922 652.721 201.528C652.829 201.134 652.98 200.818 653.176 200.581C653.371 200.34 653.605 200.167 653.879 200.063C654.155 199.959 654.465 199.907 654.806 199.907C655.083 199.907 655.337 199.941 655.568 200.01C655.802 200.075 656.011 200.18 656.193 200.327C656.375 200.47 656.53 200.662 656.657 200.903C656.787 201.141 656.886 201.432 656.955 201.777C657.023 202.122 657.057 202.527 657.057 202.993ZM656.149 204.223V202.842C656.149 202.523 656.13 202.243 656.091 202.002C656.055 201.758 656.001 201.549 655.929 201.377C655.858 201.204 655.767 201.064 655.656 200.957C655.549 200.849 655.423 200.771 655.28 200.722C655.14 200.67 654.982 200.644 654.806 200.644C654.592 200.644 654.401 200.685 654.235 200.766C654.069 200.844 653.929 200.97 653.815 201.142C653.705 201.315 653.62 201.541 653.561 201.821C653.503 202.101 653.473 202.441 653.473 202.842V204.223C653.473 204.542 653.491 204.824 653.527 205.068C653.566 205.312 653.623 205.524 653.698 205.703C653.773 205.879 653.864 206.024 653.971 206.137C654.079 206.251 654.203 206.336 654.343 206.391C654.486 206.443 654.644 206.469 654.816 206.469C655.038 206.469 655.231 206.427 655.397 206.343C655.563 206.258 655.702 206.126 655.812 205.947C655.926 205.765 656.011 205.532 656.066 205.249C656.122 204.962 656.149 204.621 656.149 204.223ZM659.538 203.115H660.182C660.498 203.115 660.759 203.063 660.964 202.959C661.172 202.851 661.327 202.706 661.427 202.524C661.532 202.339 661.584 202.13 661.584 201.899C661.584 201.626 661.538 201.396 661.447 201.211C661.356 201.025 661.219 200.885 661.037 200.791C660.855 200.696 660.623 200.649 660.344 200.649C660.09 200.649 659.865 200.7 659.67 200.801C659.478 200.898 659.326 201.038 659.216 201.22C659.108 201.403 659.054 201.618 659.054 201.865H658.151C658.151 201.504 658.242 201.175 658.425 200.879C658.607 200.582 658.862 200.346 659.191 200.171C659.523 199.995 659.907 199.907 660.344 199.907C660.773 199.907 661.149 199.983 661.471 200.136C661.794 200.286 662.044 200.511 662.223 200.81C662.402 201.107 662.492 201.476 662.492 201.919C662.492 202.098 662.45 202.29 662.365 202.495C662.284 202.697 662.155 202.885 661.979 203.061C661.807 203.237 661.582 203.382 661.305 203.496C661.029 203.607 660.697 203.662 660.309 203.662H659.538V203.115ZM659.538 203.857V203.315H660.309C660.762 203.315 661.136 203.369 661.432 203.476C661.729 203.584 661.961 203.727 662.131 203.906C662.303 204.085 662.424 204.282 662.492 204.497C662.564 204.708 662.599 204.92 662.599 205.132C662.599 205.464 662.542 205.758 662.428 206.015C662.318 206.273 662.16 206.491 661.955 206.67C661.753 206.849 661.515 206.984 661.242 207.075C660.969 207.166 660.671 207.212 660.348 207.212C660.039 207.212 659.748 207.168 659.474 207.08C659.204 206.992 658.965 206.865 658.757 206.699C658.548 206.53 658.386 206.323 658.268 206.079C658.151 205.831 658.093 205.55 658.093 205.234H658.996C658.996 205.482 659.05 205.698 659.157 205.884C659.268 206.069 659.424 206.214 659.626 206.318C659.831 206.419 660.072 206.469 660.348 206.469C660.625 206.469 660.863 206.422 661.061 206.328C661.263 206.23 661.418 206.084 661.525 205.888C661.636 205.693 661.691 205.447 661.691 205.151C661.691 204.855 661.629 204.612 661.506 204.424C661.382 204.232 661.206 204.09 660.978 203.999C660.754 203.904 660.488 203.857 660.182 203.857H659.538Z" fill="#333333"/>
    <path d="M57.5189 103.767L177.993 109.837L298.468 95.0948L418.942 77.7506L539.417 134.986L659.891 91.6259" stroke="#A3353E" stroke-width="2" stroke-linejoin="round"/>
    <path d="M57.5189 108.832C60.5032 108.832 63.1525 106.683 63.1525 103.767C63.1525 100.85 60.5032 98.7017 57.5189 98.7017C54.5345 98.7017 51.8853 100.85 51.8853 103.767C51.8853 106.683 54.5345 108.832 57.5189 108.832Z" fill="white" stroke="#A3363F" stroke-width="2"/>
    <path d="M177.993 114.903C180.978 114.903 183.627 112.754 183.627 109.838C183.627 106.921 180.978 104.772 177.993 104.772C175.009 104.772 172.36 106.921 172.36 109.838C172.36 112.754 175.009 114.903 177.993 114.903Z" fill="white" stroke="#A3363F" stroke-width="2"/>
    <path d="M298.468 100.16C301.452 100.16 304.101 98.0111 304.101 95.0948C304.101 92.1785 301.452 90.0298 298.468 90.0298C295.483 90.0298 292.834 92.1785 292.834 95.0948C292.834 98.0111 295.483 100.16 298.468 100.16Z" fill="white" stroke="#A3363F" stroke-width="2"/>
    <path d="M418.942 82.8155C421.926 82.8155 424.576 80.6668 424.576 77.7505C424.576 74.8341 421.926 72.6854 418.942 72.6854C415.958 72.6854 413.308 74.8341 413.308 77.7505C413.308 80.6668 415.958 82.8155 418.942 82.8155Z" fill="white" stroke="#A3363F" stroke-width="2"/>
    <path d="M539.416 140.052C542.401 140.052 545.05 137.903 545.05 134.987C545.05 132.07 542.401 129.922 539.416 129.922C536.432 129.922 533.783 132.07 533.783 134.987C533.783 137.903 536.432 140.052 539.416 140.052Z" fill="white" stroke="#A3363F" stroke-width="2"/>
    <path d="M659.891 96.691C662.875 96.691 665.525 94.5423 665.525 91.626C665.525 88.7096 662.875 86.5609 659.891 86.5609C656.907 86.5609 654.257 88.7096 654.257 91.626C654.257 94.5423 656.907 96.691 659.891 96.691Z" fill="white" stroke="#A3363F" stroke-width="2"/>
    <path d="M7.56025 8.324V10.998H9.43625V8.324H7.56025ZM7.54625 3.704V3.998C7.54625 5.384 6.63625 6.742 4.56425 7.288L5.40425 8.716C7.86825 8.058 9.03025 6.168 9.03025 3.998V3.704H7.54625ZM7.93825 3.704V3.998C7.93825 6.112 9.14225 7.974 11.6063 8.604L12.4323 7.176C10.3743 6.644 9.43625 5.328 9.43625 3.998V3.704H7.93825ZM4.95625 2.808V4.278H12.0543V2.808H4.95625ZM7.56025 1.394V3.452H9.43625V1.394H7.56025ZM13.2023 1.268V14.274H15.0643V1.268H13.2023ZM4.52225 11.866C6.76225 11.852 9.81425 11.824 12.6283 11.278L12.4883 9.92C9.75825 10.326 6.56625 10.354 4.29825 10.354L4.52225 11.866ZM26.1372 1.268V14.274H27.9992V1.268H26.1372ZM23.8692 5.804V7.302H26.5712V5.804H23.8692ZM20.1172 3.326V4.474C20.1172 6.882 19.0952 9.36 16.9252 10.382L18.0172 11.852C20.4392 10.662 21.5872 7.638 21.5872 4.474V3.326H20.1172ZM20.5512 3.326V4.474C20.5512 7.54 21.6712 10.438 24.1072 11.586L25.1852 10.13C23.0152 9.15 22.0072 6.756 22.0072 4.474V3.326H20.5512ZM17.4572 2.528V4.026H24.6672V2.528H17.4572ZM38.2881 1.268V14.232H40.1641V1.268H38.2881ZM39.6741 6.224V7.75H41.9561V6.224H39.6741ZM34.8861 2.612V2.934C34.8861 6.448 33.2761 8.828 29.8741 10.592L30.9101 12.006C35.2221 9.836 36.7061 6.504 36.7061 2.612H34.8861ZM30.5881 2.612V4.11H35.8381V2.612H30.5881ZM51.4437 9.584V14.26H53.2917V9.584H51.4437ZM46.5297 9.038V10.55H58.2477V9.038H46.5297ZM51.4297 3.606V3.914C51.4297 5.118 50.0437 6.588 47.1177 6.924L47.7617 8.38C51.1917 7.974 53.0677 6.084 53.0677 3.914V3.606H51.4297ZM51.6677 3.606V3.914C51.6677 6.028 53.5437 7.988 56.9597 8.38L57.6177 6.924C54.7057 6.588 53.3057 5.09 53.3057 3.914V3.606H51.6677ZM47.5797 2.766V4.236H57.1837V2.766H47.5797ZM51.4437 1.31V3.27H53.2917V1.31H51.4437ZM68.2846 1.268V14.274H70.1606V1.268H68.2846ZM63.1746 2.178C61.2146 2.178 59.7726 3.97 59.7726 6.798C59.7726 9.654 61.2146 11.446 63.1746 11.446C65.1346 11.446 66.5766 9.654 66.5766 6.798C66.5766 3.97 65.1346 2.178 63.1746 2.178ZM63.1746 3.872C64.1406 3.872 64.7846 4.894 64.7846 6.798C64.7846 8.73 64.1406 9.766 63.1746 9.766C62.2086 9.766 61.5506 8.73 61.5506 6.798C61.5506 4.894 62.2086 3.872 63.1746 3.872Z" fill="black"/>
</svg>
