<?xml version="1.0" encoding="UTF-8"?>
<svg id="Layer_2" data-name="Layer 2" xmlns="http://www.w3.org/2000/svg" viewBox="0 0 44.11 17">
  <defs>
    <style>
      .cls-1 {
        fill: #03b04c;
      }

      .cls-2 {
        fill: #010101;
      }
    </style>
  </defs>
  <g id="Layer_1-2" data-name="Layer 1">
    <g>
      <path class="cls-1" d="m0,0v15.2h15.2V0H0Zm11.4,11.08h-2.59l-2.45-3.6v3.6h-2.56v-6.96h2.59l2.45,3.6v-3.6h2.56v6.96Z"/>
      <g>
        <path class="cls-2" d="m40.25,8.54c-3.12-.69-5.85,2.03-5.15,5.15.35,1.57,1.62,2.84,3.19,3.19,3.12.69,5.85-2.03,5.15-5.15-.35-1.57-1.62-2.84-3.19-3.19Zm-.62,5.98c-1.3.25-2.42-.87-2.17-2.17.14-.72.73-1.31,1.45-1.45,1.3-.25,2.42.87,2.17,2.17-.14.72-.73,1.31-1.45,1.45Z"/>
        <polygon class="cls-2" points="19.44 8.73 24.24 4.95 29.04 8.73 30.53 6.83 25.46 2.84 25.46 .68 23.04 .68 23.04 2.82 17.94 6.83 19.44 8.73"/>
        <polygon class="cls-2" points="27.53 8.29 25.11 8.29 25.11 11.27 23.38 11.27 23.38 8.29 20.97 8.29 20.97 11.27 17.18 11.27 17.18 13.55 31.16 13.55 31.16 11.27 27.53 11.27 27.53 8.29"/>
        <path class="cls-2" d="m40.43,5.71h-1.24v-3.14h1.28V.44h-8.97v2.14h1.28v3.14h-1.31v2.14h8.97v-2.14Zm-5.52-3.14h2.14v3.14h-2.14v-3.14Z"/>
        <rect class="cls-2" x="41.69" y=".13" width="2.42" height="8"/>
      </g>
    </g>
  </g>
</svg>