<?xml version="1.0" encoding="UTF-8"?>
<svg id="Layer_2" data-name="Layer 2" xmlns="http://www.w3.org/2000/svg" viewBox="0 0 90.89 91.61">
  <defs>
    <style>
      .cls-1 {
        fill: #cb2026;
      }
    </style>
  </defs>
  <g id="Layer_2-2" data-name="Layer 2">
    <path class="cls-1" d="m4.17,25.98c1.03-.35,2.03-.69,3.03-1.02,1.42-.48,2.84-.97,4.27-1.42.39-.12.49-.3.46-.7-.16-2.23-.3-4.46-.45-6.69-.02-.31-.04-.61-.06-.98.89-.04,1.75-.08,2.61-.12,1.74-.07,3.49-.14,5.23-.19.36,0,.43-.2.48-.47.52-2.36,1.04-4.71,1.57-7.07.03-.16.08-.31.14-.51,1.37.35,2.71.68,4.05,1.02,1.15.29,2.31.56,3.46.88.37.1.52,0,.69-.31,1.11-2.03,2.23-4.06,3.35-6.09.12-.22.25-.45.39-.7,1.49.88,2.93,1.73,4.38,2.58.77.46,1.55.9,2.31,1.38.29.18.47.15.71-.09,1.65-1.65,3.32-3.28,4.98-4.93.16-.16.3-.35.49-.57.19.19.33.31.46.45,1.63,1.74,3.26,3.48,4.88,5.22.25.27.43.33.78.14,2.13-1.18,4.27-2.32,6.41-3.47.11-.06.23-.11.39-.19.09.16.17.31.25.47,1.08,2.14,2.17,4.28,3.22,6.43.17.35.36.41.71.34,2.34-.51,4.69-1.01,7.03-1.5.17-.04.34-.05.55-.08.32,1.73.63,3.41.93,5.09.16.87.34,1.73.47,2.6.05.29.18.38.44.39,2,.15,4,.3,6,.45.47.04.94.09,1.42.1.33,0,.42.14.39.45-.15,1.33-.29,2.66-.43,3.99-.12,1.1-.22,2.21-.35,3.31-.05.38.08.54.43.67,2.25.83,4.49,1.68,6.73,2.53.15.06.3.12.49.2-.38.92-.74,1.82-1.12,2.72-.6,1.45-1.18,2.9-1.8,4.34-.17.4-.13.62.23.88,1.92,1.42,3.81,2.86,5.71,4.3.13.1.25.2.41.33-1.71,2.14-3.41,4.26-5.13,6.41,1.63,2.2,3.25,4.39,4.9,6.61-.74.52-1.45,1.02-2.15,1.51-1.41.98-2.81,1.97-4.22,2.93-.29.2-.35.37-.23.71.85,2.24,1.67,4.49,2.5,6.74.06.16.11.33.18.55-.98.33-1.94.65-2.89.97-1.47.49-2.93,1-4.41,1.46-.42.13-.5.33-.47.74.19,2.49.35,4.98.52,7.47,0,.05-.02.09-.04.18-.89.04-1.78.08-2.67.12-1.7.07-3.39.14-5.09.19-.32,0-.44.1-.51.42-.54,2.47-1.09,4.93-1.64,7.39-.01.05-.03.09-.07.21-.66-.16-1.31-.31-1.97-.47-1.85-.47-3.7-.93-5.54-1.41-.35-.09-.51-.02-.68.3-1.13,2.08-2.28,4.15-3.42,6.22-.1.18-.21.36-.35.58-2.36-1.39-4.69-2.76-7.07-4.17-1.95,1.92-3.89,3.84-5.86,5.79-1.58-1.69-3.14-3.36-4.7-5.03-.3-.32-.58-.82-.94-.88-.35-.06-.78.32-1.16.53-1.91,1.03-3.82,2.06-5.72,3.09-.1.05-.2.1-.36.17-.15-.3-.29-.58-.44-.87-1.02-2.02-2.04-4.05-3.05-6.08-.15-.3-.28-.39-.63-.31-2.43.54-4.87,1.05-7.31,1.56-.08.02-.16.02-.32.05-.49-2.69-.99-5.37-1.48-8.08-2.74-.21-5.45-.42-8.2-.63.14-1.36.27-2.65.4-3.94.14-1.31.27-2.63.44-3.94.04-.34-.17-.38-.38-.46-2.17-.82-4.33-1.64-6.5-2.46-.24-.09-.48-.19-.78-.3.06-.19.11-.35.18-.51.91-2.22,1.81-4.44,2.75-6.65.17-.4.07-.57-.23-.79-1.9-1.42-3.78-2.85-5.67-4.28-.14-.11-.28-.22-.47-.37.54-.68,1.06-1.34,1.58-2,1.07-1.34,2.13-2.68,3.23-4,.28-.33.25-.55,0-.87-1.46-1.94-2.91-3.9-4.35-5.85-.07-.09-.13-.19-.21-.32.98-.69,1.96-1.37,2.93-2.05,1.14-.79,2.27-1.6,3.42-2.37.3-.2.36-.38.23-.72-.84-2.24-1.66-4.5-2.48-6.74-.06-.17-.12-.33-.19-.54Zm68.23,21.26c-1.25.79-1.61,1.94-1.57,3.28.02.67,0,.67.68.67,2.01,0,4.02,0,6.02,0,.91,0,1.48.68,1.29,1.55-.07.33-.3.64-.51.92-.2.27-.65.47-.67.73-.02.3.3.62.47.94.07.13.15.25.2.39.15.35.38.38.65.17.34-.26.7-.49.98-.8.96-1.09,1.21-2.37.75-3.74-.42-1.26-1.36-1.99-2.66-2.15-.74-.09-1.5,0-2.25,0-.89,0-1.77,0-2.68,0,.16-.66.61-.99,1.2-1.1.49-.09,1-.09,1.51-.11,1.92-.08,3.38-1.14,3.87-2.83.29-.98.2-1.96-.17-2.96.25-.1.47-.2.7-.26.28-.08.7-.04.83-.22.15-.21.05-.6.05-.9,0-.05,0-.1,0-.15,0-.77-.07-.83-.84-.7-.06.01-.13.02-.19.05-.54.25-1.08.5-1.66.77-1.22-.9-2.69-1.05-4.22-.82-2.13.33-3.43,1.87-3.43,4.03,0,1.32.53,2.4,1.63,3.25Zm-30.67-6.58q-.13-.61-.9-.61c-.28,0-.56.02-.83,0-.41-.04-.54.14-.53.54.02,1.24,0,2.48,0,3.72,0,3.62.01,7.24-.01,10.87,0,.51.16.67.64.62.4-.04.82-.02,1.22,0,.36.02.48-.12.48-.48-.02-1.42,0-2.84,0-4.26,0-.17.02-.33.03-.55.16.1.24.16.32.21,2.6,1.71,5.85.39,6.34-2.67.22-1.4.12-2.86.08-4.3-.06-2.5-2.11-4.22-4.57-3.82-.78.13-1.52.49-2.26.74Zm14.55,3.47c-2.63-1.01-4.51-.79-5.68.65-1.1,1.35-1.28,3.57-.2,4.98,1.65,2.16,3.77,1.98,6.01.9-.08.48.15.59.56.56.36-.03.72-.02,1.08,0,.33.02.47-.09.46-.44-.01-2.32.02-4.63-.02-6.95-.03-2.04-1.41-3.58-3.43-3.91-1.52-.25-2.94.14-4.35.65-.25.09-.31.24-.21.49.15.38.29.76.41,1.15.1.32.23.37.57.27.8-.25,1.62-.5,2.45-.61,1.5-.2,2.53.82,2.36,2.26Zm-28.96,1.56s-.03,0-.04,0c0-.47,0-.95,0-1.42-.04-1.43-.45-2.7-1.67-3.58-.93-.67-2-.85-3.11-.82-2.31.05-3.94,1.25-4.23,3.41-.21,1.57-.18,3.2,0,4.78.2,1.76,1.37,2.84,3.11,3.22.57.12,1.17.14,1.75.13,2.1-.05,3.65-1.32,4.02-3.32.14-.78.12-1.59.17-2.39Zm35.1-4.78q-.06-.85-.82-.85c-.26,0-.53.02-.78,0-.48-.05-.6.14-.6.61.02,3.31.02,6.63,0,9.94,0,.51.16.67.65.61.27-.03.55,0,.83,0,.9-.01.86.15.86-.87,0-2.07,0-4.15,0-6.22,0-1.07.56-1.86,1.47-2.12,1.67-.47,2.95.51,2.96,2.24,0,2.15,0,4.31,0,6.46,0,.38.11.54.5.52.46-.03.91-.02,1.37,0,.36.02.49-.11.49-.48-.01-2.25.02-4.51-.01-6.76-.04-2.6-1.78-4.23-4.32-4.12-.95.04-1.8.38-2.59,1.05Zm-26.82,9.46c.02.14.04.21.03.27-.06.45.12.62.57.58.37-.03.75-.03,1.13,0,.36.02.48-.11.48-.47-.02-1.71,0-3.43,0-5.14,0-1.7,0-3.39,0-5.09,0-.34-.11-.47-.45-.46-.41.02-.82.03-1.22,0-.48-.04-.65.11-.65.62.03,2.1.01,4.21,0,6.32,0,1.21-.52,1.99-1.47,2.28-1.64.5-2.99-.49-2.99-2.2,0-2.15,0-4.31,0-6.46,0-.38-.09-.54-.49-.51-.45.03-.91.03-1.37,0-.4-.03-.5.14-.5.51.01,1.53,0,3.07,0,4.6,0,.93-.02,1.86.08,2.78.18,1.69,1.33,2.96,2.9,3.3,1.41.3,2.72.08,3.92-.92Zm-26.75-4.72s.03,0,.04,0c0,.54-.03,1.08,0,1.62.1,1.69.77,3.05,2.4,3.73,1.38.58,2.8.56,4.21.05.79-.29,1.4-.81,1.86-1.52.21-.32.23-.54-.19-.71-.39-.16-.77-.36-1.14-.57-.32-.19-.51-.19-.73.18-.51.83-1.57,1.14-2.6.83-.89-.27-1.45-1.05-1.46-2.03,0-.83,0-1.67,0-2.5,0-.24,0-.49,0-.73.02-.95.59-1.74,1.45-1.99,1.04-.31,2.1-.01,2.6.82.25.41.45.41.8.19.36-.23.74-.41,1.13-.59.32-.15.34-.34.17-.62-.41-.66-.95-1.17-1.66-1.47-1.31-.57-2.66-.62-4.02-.2-1.58.48-2.48,1.59-2.73,3.19-.12.77-.1,1.56-.14,2.34Z"/>
    <path class="cls-1" d="m75.34,41.9c1.29,0,2.2.86,2.19,2.05-.01,1.17-.96,2.03-2.24,2.02-1.29,0-2.22-.87-2.22-2.05,0-1.19.94-2.03,2.27-2.03Z"/>
    <path class="cls-1" d="m46.23,45.64c0,.56,0,1.11,0,1.67-.02,1.23-.87,2.04-2.13,2.06-1.29.03-2.23-.77-2.27-1.99-.04-1.16-.04-2.32,0-3.48.04-1.23,1.01-2.04,2.32-2,1.21.03,2.07.87,2.09,2.07.01.55,0,1.11,0,1.67h0Z"/>
    <path class="cls-1" d="m56.32,47.4c0,1.24-.87,2.05-2.18,2.04-1.24,0-2.15-.88-2.14-2.06,0-1.19.93-2.05,2.21-2.04,1.27,0,2.12.84,2.11,2.06Z"/>
    <path class="cls-1" d="m24.89,45.62c0,.65.08,1.32-.02,1.95-.2,1.26-1.1,1.87-2.45,1.77-1.11-.08-1.9-.9-1.94-2.07-.04-1.09-.04-2.19,0-3.28.05-1.33.96-2.12,2.33-2.09,1.23.02,2.09.89,2.12,2.16.01.52,0,1.05,0,1.57-.01,0-.03,0-.04,0Z"/>
  </g>
</svg>