<?xml version="1.0" encoding="UTF-8"?>
<svg id="Layer_2" data-name="Layer 2" xmlns="http://www.w3.org/2000/svg" viewBox="0 0 69.76 18.05">
  <defs>
    <style>
      .cls-1 {
        fill: #28b34b;
      }
    </style>
  </defs>
  <g id="Layer_1-2" data-name="Layer 1">
    <g>
      <path class="cls-1" d="m11.77,10.68c-.78,0-1.57,0-2.35,0-.97,0-1.7-.56-1.81-1.43-.12-.9.55-1.72,1.46-1.8.07,0,.15-.02.22,0,.78.15,1.55-.02,2.32-.01.79,0,1.57-.03,2.36-.02.63,0,1.27,0,1.89.09.87.13,1.38.74,1.43,1.62.09,1.52-.14,3-.78,4.4-.85,1.87-2.33,3.06-4.18,3.84-1.02.43-2.11.58-3.19.67-.63.05-1.28-.16-1.92-.29-1.84-.39-3.46-1.22-4.74-2.61-1.2-1.3-1.99-2.84-2.29-4.61-.07-.4-.18-.8-.2-1.2-.02-.39.04-.79.09-1.18.12-.96.34-1.9.75-2.78C1.88,3.17,3.53,1.61,5.79.69,6.77.3,7.8.12,8.84.01c.51-.05,1.04.07,1.55.15,1.59.22,3.02.83,4.29,1.81.46.36.82.8.83,1.42,0,.65-.3,1.12-.86,1.43-.56.31-1.13.29-1.67-.06-.71-.46-1.44-.9-2.27-1.13-1.84-.52-3.55-.29-5.08.91-1.27.99-2.04,2.29-2.21,3.89-.26,2.5,1.15,4.83,3.5,5.78,1.99.8,3.9.65,5.59-.77.71-.6,1.14-1.39,1.3-2.31.07-.42.02-.47-.41-.47-.54,0-1.08,0-1.63,0,0,0,0,.01,0,.02Z"/>
      <path d="m26.04,15.91h-2.26c0-.13,0-.26,0-.39,0-1.5,0-2.99,0-4.49,0-.77-.43-1.34-1.11-1.51-.83-.22-1.71.38-1.79,1.23-.03.31-.03.63-.03.95,0,1.3,0,2.6,0,3.9,0,.1,0,.19,0,.31h-2.27c0-.1,0-.2,0-.3,0-1.52,0-3.05,0-4.57,0-2.14,1.72-3.84,3.86-3.79.85.02,1.61.33,2.25.88.19.16.29.12.45-.02.72-.6,1.55-.9,2.48-.86,2.05.08,3.48,1.76,3.58,3.27.02.26.04.52.04.78,0,1.42,0,2.85,0,4.27,0,.11,0,.21,0,.35-.47,0-.91,0-1.35,0-.23,0-.45-.01-.68,0-.21.02-.28-.06-.28-.27.01-1.2,0-2.4,0-3.6,0-.37,0-.74,0-1.11,0-.85-.61-1.47-1.44-1.47-.81,0-1.45.63-1.46,1.46,0,1.41,0,2.81,0,4.22,0,.24,0,.48,0,.75Z"/>
      <path d="m50.15,13v2.9h-2.26V4.37c.11,0,.22-.02.33-.02.57,0,1.14,0,1.71,0,.19,0,.25.08.25.26-.02,1.76-.03,3.52-.04,5.28,0,.14,0,.28,0,.41.03,0,.05.02.08.03.08-.07.17-.14.25-.22.76-.83,1.52-1.67,2.29-2.5.08-.08.2-.17.31-.17.91-.01,1.83-.01,2.74-.01.03,0,.05.01.12.03-.06.07-.09.14-.14.19-1.2,1.25-2.39,2.51-3.59,3.76-.17.17-.18.27,0,.45,1.21,1.23,2.4,2.47,3.6,3.71.09.09.17.2.3.35-.65,0-1.24,0-1.82,0-.25,0-.51-.02-.76,0-.36.04-.61-.11-.84-.37-.79-.85-1.6-1.69-2.41-2.53,0-.01-.03,0-.09-.02Z"/>
      <path d="m38.8,8.07c-.01-.24-.02-.41-.03-.61h2.12v8.45h-2.07c-.02-.19-.04-.37-.06-.6-1.06.66-2.14.9-3.33.56-1-.29-1.83-.8-2.46-1.63-1.18-1.56-1.16-3.66.06-5.19.69-.87,1.59-1.4,2.68-1.61,1.08-.2,2.09,0,3.09.64Zm-2.3,5.82c1.23,0,2.25-1.01,2.25-2.23,0-1.2-1.08-2.24-2.3-2.23-1.2,0-2.23,1.04-2.23,2.23,0,1.23,1.02,2.23,2.28,2.23Z"/>
      <path d="m57.67,12.67c.39.79,1.02,1.12,1.8,1.21.89.11,1.73-.02,2.46-.6.06-.05.24-.03.3.03.41.34.81.69,1.21,1.04.15.13.05.22-.04.31-.57.61-1.29.99-2.09,1.18-1.87.43-3.55.08-4.89-1.33-.88-.92-1.16-2.07-1.03-3.33.2-1.9,1.54-3.41,3.46-3.76,2.45-.46,4.68.84,5.1,3.58.07.43.04.88.05,1.32,0,.24-.08.36-.37.36-1.84-.01-3.69,0-5.53,0-.13,0-.25,0-.43,0Zm.02-1.91h4.03c-.21-.87-1.15-1.41-2.28-1.34-.94.06-1.73.86-1.75,1.34Z"/>
      <path d="m69.75,7.49c0,.72,0,1.39,0,2.07,0,.16-.08.17-.21.17-.49-.01-.98-.01-1.46-.02-.34,0-.34,0-.34.36,0,.87-.01,1.73,0,2.6.01.61.43.99,1.04,1.01.2,0,.4-.01.6.01.07,0,.17.11.18.16,0,.66,0,1.32-.01,1.97,0,.02-.02.05-.03.07-1.62.19-3.11-.46-3.77-1.96-.26-.58-.28-1.21-.3-1.83-.02-.7-.01-1.41,0-2.11,0-.24-.08-.29-.29-.29-.69,0-.69-.01-.69-.72,0-.48,0-.97,0-1.48h.96c0-.11.02-.2.02-.29,0-.47,0-.94,0-1.41,0-.13.02-.23.19-.23.65,0,1.3,0,1.95.02.06,0,.15.14.15.22.01.47.02.94,0,1.41,0,.2.07.27.27.26.57,0,1.14,0,1.75,0Z"/>
      <path d="m44.77,7.43v.58c.11-.05.19-.08.26-.11.55-.29,1.15-.42,1.77-.45.16,0,.23.04.23.21,0,.59,0,1.19,0,1.78,0,.15-.05.2-.21.21-1.22.1-2.02.95-2.03,2.17-.01,1.2,0,2.4,0,3.6,0,.15,0,.3,0,.48h-2.24c0-.09-.02-.18-.02-.26,0-2.65,0-5.3,0-7.95,0-.12-.01-.25.16-.25.68,0,1.37,0,2.07,0Z"/>
    </g>
  </g>
</svg>