<?xml version="1.0" encoding="UTF-8"?>
<svg id="Layer_2" data-name="Layer 2" xmlns="http://www.w3.org/2000/svg" viewBox="0 0 84.66 13.03">
  <defs>
    <style>
      .cls-1 {
        fill: #db1f26;
      }
    </style>
  </defs>
  <g id="Layer_1-2" data-name="Layer 1">
    <g>
      <path class="cls-1" d="m70.52,5.64v7.07h-2.87c-.02-.21-.04-.41-.04-.62,0-3.47.01-6.95-.02-10.42,0-.6.19-.74.75-.71.8.04,1.61.04,2.41,0,.48-.02.74.14.96.57,1.08,2.05,2.2,4.09,3.3,6.13.1.18.21.36.44.52V.97c.94,0,1.8-.02,2.66.03.11,0,.29.37.29.58.02,1.8.01,3.6.01,5.41,0,1.89,0,3.77,0,5.78-.74,0-1.46-.09-2.15.02-1.3.21-1.97-.34-2.51-1.5-.82-1.77-1.83-3.45-2.77-5.16-.1-.18-.22-.36-.32-.54-.05.02-.1.03-.15.05Z"/>
      <path class="cls-1" d="m0,12.79c1.15-3.44,2.27-6.78,3.42-10.22-.49,0-.87-.02-1.26,0-.39.03-.52-.11-.54-.51C1.52,0,1.51,0,3.54,0c1.52,0,3.04,0,4.56,0,.35,0,.55.08.67.44,1.34,4.04,2.7,8.06,4.05,12.1.02.06,0,.12.02.28-1.09,0-2.17,0-3.24,0-.1,0-.22-.12-.28-.22-.07-.1-.08-.25-.12-.37-.2-.59-.24-1.39-.65-1.71-.38-.3-1.16-.1-1.77-.11-.74,0-1.48.01-2.21,0-.34,0-.51.1-.6.44-.13.53-.27,1.05-.47,1.56-.07.18-.3.4-.46.41-.82.04-1.65.02-2.47.02-.15,0-.3-.02-.57-.03Zm7.93-4.98c-.5-1.72-.97-3.37-1.45-5.02-.05,0-.11,0-.16,0-.48,1.65-.96,3.3-1.45,5.01h3.07Z"/>
      <path class="cls-1" d="m59.55.75c.6.07,1.21.1,1.8.23,2.97.63,4.81,3.24,4.51,6.38-.35,3.75-2.88,5.84-6.76,5.61-2.31-.14-4.25-.92-5.29-3.15-.9-1.91-.9-3.88-.04-5.8.97-2.16,2.81-3.02,5.05-3.2.24-.02.48,0,.72,0,0-.02,0-.04,0-.06Zm-2.97,6.1c.08.52.12,1,.24,1.46.36,1.36,1.34,2.11,2.69,2.12,1.36,0,2.32-.72,2.72-2.08.3-1.03.29-2.06-.05-3.08-.42-1.28-1.36-1.93-2.7-1.92-1.29.01-2.22.68-2.61,1.95-.16.51-.2,1.06-.29,1.56Z"/>
      <path class="cls-1" d="m13.68,5.16c0-1.17.02-2.35,0-3.52-.01-.46.1-.67.61-.65.71.04,1.43.03,2.15,0,.46-.02.6.15.59.6-.02,2.06-.02,4.13,0,6.19,0,.45.05.92.19,1.34.29.92.98,1.38,1.92,1.36.9-.02,1.55-.49,1.83-1.39.12-.41.17-.85.18-1.28.02-2.06.02-4.13,0-6.19,0-.49.14-.66.63-.63.71.03,1.43.02,2.15,0,.4-.01.58.1.58.55-.02,2.37.01,4.73-.02,7.1-.02,1.93-1.08,3.36-2.91,3.97-1.66.55-3.34.55-4.99,0-1.8-.61-2.83-2.02-2.87-3.93-.03-1.17,0-2.34,0-3.52h0Z"/>
      <path class="cls-1" d="m36.21,3.47c-1.16-.05-2.25-.19-3.31-.11-2.1.17-3.24,1.52-3.18,3.61.05,2.05,1.24,3.33,3.32,3.44,1.03.05,2.06-.1,3.17-.16,0,.6.02,1.33-.02,2.05,0,.14-.23.36-.39.4-2.48.57-4.9.42-7.09-.97-3.3-2.1-3.34-7.55-.06-9.69,2.2-1.44,4.64-1.57,7.14-1,.17.04.39.29.4.45.05.69.02,1.38.02,1.97Z"/>
      <path class="cls-1" d="m43.77,3.42v9.29h-3.24c-.01-.25-.03-.5-.03-.75,0-2.63-.01-5.26,0-7.88,0-.51-.14-.69-.66-.67-.73.04-1.47,0-2.26,0V1c.21-.01.42-.04.63-.04,2.61,0,5.21.01,7.82-.01.53,0,.71.13.71.69-.02,1.79,0,1.79-1.81,1.79-.36,0-.73,0-1.16,0Z"/>
      <path class="cls-1" d="m51.29.96v11.74h-3.2c-.01-.22-.04-.43-.04-.64,0-3.45.01-6.9-.02-10.36,0-.61.19-.79.78-.75.82.05,1.64.01,2.48.01Z"/>
      <path class="cls-1" d="m82.46,13.01c-1.23.02-2.24-.97-2.25-2.21,0-1.21.95-2.2,2.16-2.22,1.25-.03,2.26.93,2.29,2.16.03,1.22-.97,2.25-2.2,2.26Z"/>
    </g>
  </g>
</svg>