<svg width="24" height="24" viewBox="0 0 24 24" fill="none" xmlns="http://www.w3.org/2000/svg">
<path fill-rule="evenodd" clip-rule="evenodd" d="M6.969 21.5311C6.89916 21.4615 6.84374 21.3787 6.80593 21.2876C6.76812 21.1965 6.74866 21.0988 6.74866 21.0001C6.74866 20.9015 6.76812 20.8038 6.80593 20.7127C6.84374 20.6216 6.89916 20.5388 6.969 20.4691L15.4395 12.0001L6.969 3.53112C6.82817 3.39029 6.74906 3.19929 6.74906 3.00012C6.74906 2.80096 6.82817 2.60995 6.969 2.46912C7.10983 2.32829 7.30084 2.24918 7.5 2.24918C7.69917 2.24918 7.89017 2.32829 8.031 2.46912L17.031 11.4691C17.1008 11.5388 17.1563 11.6216 17.1941 11.7127C17.2319 11.8038 17.2513 11.9015 17.2513 12.0001C17.2513 12.0988 17.2319 12.1965 17.1941 12.2876C17.1563 12.3787 17.1008 12.4615 17.031 12.5311L8.031 21.5311C7.96133 21.601 7.87857 21.6564 7.78745 21.6942C7.69633 21.732 7.59865 21.7515 7.5 21.7515C7.40135 21.7515 7.30367 21.732 7.21255 21.6942C7.12143 21.6564 7.03867 21.601 6.969 21.5311Z" fill="black"/>
</svg>
