<svg width="12" height="9" viewBox="0 0 12 9" fill="none" xmlns="http://www.w3.org/2000/svg">
<path fill-rule="evenodd" clip-rule="evenodd" d="M0.135578 0.960316C0.178446 0.907114 0.229372 0.864905 0.285438 0.836105C0.341503 0.807305 0.401608 0.79248 0.462309 0.79248C0.52301 0.79248 0.583115 0.807305 0.639181 0.836105C0.695247 0.864905 0.746172 0.907114 0.78904 0.960316L6.00012 7.41238L11.2112 0.960316C11.2541 0.9072 11.305 0.865067 11.3611 0.836321C11.4172 0.807575 11.4773 0.79278 11.5379 0.79278C11.5986 0.79278 11.6587 0.807575 11.7148 0.836321C11.7708 0.865067 11.8218 0.9072 11.8647 0.960316C11.9076 1.01343 11.9416 1.07649 11.9648 1.14589C11.988 1.21529 12 1.28967 12 1.36478C12 1.4399 11.988 1.51428 11.9648 1.58368C11.9416 1.65308 11.9076 1.71614 11.8647 1.76925L6.32685 8.62465C6.28398 8.67785 6.23306 8.72006 6.17699 8.74886C6.12093 8.77766 6.06082 8.79248 6.00012 8.79248C5.93942 8.79248 5.87932 8.77766 5.82325 8.74886C5.76718 8.72006 5.71626 8.67785 5.67339 8.62465L0.135578 1.76925C0.092602 1.71619 0.0585049 1.65314 0.0352401 1.58374C0.0119754 1.51433 0 1.43993 0 1.36478C0 1.28964 0.0119754 1.21524 0.0352401 1.14583C0.0585049 1.07642 0.092602 1.01338 0.135578 0.960316Z" fill="#808080"/>
</svg>
