<svg width="20" height="12" viewBox="0 0 20 12" fill="none" xmlns="http://www.w3.org/2000/svg">
<path fill-rule="evenodd" clip-rule="evenodd" d="M17.8297 9.46415L18.0336 4.28762C18.0461 3.96997 17.8726 3.70522 17.6459 3.69629C17.4193 3.68736 17.2254 3.93764 17.2129 4.25529L17.0637 8.04324L11.7901 0L11.4839 0.395276L3.74192 8.90482L4.29482 8.07157L0.552885 3.1831L0 4.01636L3.74192 8.90482L4.22937 9.77798L11.6922 1.57525L16.4513 8.83379L13.7487 8.72733C13.522 8.7184 13.3281 8.96867 13.3156 9.28633C13.3031 9.60399 13.4767 9.86874 13.7033 9.87767L17.3967 10.0232C17.6233 10.0321 17.8172 9.78181 17.8297 9.46415ZM0 11.9827H1V10.9827H0V11.9827ZM3 11.9827H5V10.9827H3V11.9827ZM7 11.9827H9V10.9827H7V11.9827ZM11 11.9827H13V10.9827H11V11.9827ZM15 11.9827H17V10.9827H15V11.9827ZM19 11.9827H20V10.9827H19V11.9827Z" fill="#A3353E"/>
</svg>
